<svg width="231" height="45" viewBox="0 0 231 45" fill="none" xmlns="http://www.w3.org/2000/svg">
    <path d="M12.7559 24.8027C10.5762 26.748 7.97461 27.7207 4.95117 27.7207C3.12305 27.7207 1.81641 27.334 1.03125 26.5605C0.585938 26.1387 0.363281 25.3945 0.363281 24.3281C0.363281 22.6875 1.61133 21.627 4.10742 21.1465C4.89258 20.9941 5.83594 20.918 6.9375 20.918C8.03906 20.918 9.54492 21.123 11.4551 21.5332C12.4746 20.3965 13.6875 18.7266 15.0938 16.5234C16.5117 14.3086 17.6309 12.6035 18.4512 11.4082C19.2715 10.2129 20.2031 8.99414 21.2461 7.75195C22.2891 6.49805 23.3789 5.36719 24.5156 4.35938C26.8242 2.29688 29.1094 1.26562 31.3711 1.26562C32.3789 1.26562 33.1055 1.52344 33.5508 2.03906C33.9961 2.54297 34.2188 3.14648 34.2188 3.84961C34.2188 4.54102 33.8965 5.34961 33.252 6.27539C32.6191 7.20117 31.8809 8.02148 31.0371 8.73633C30.2051 9.45117 29.3789 10.0605 28.5586 10.5645C27.75 11.0566 27.1113 11.3027 26.6426 11.3027C26.1738 11.3027 25.7695 11.1035 25.4297 10.7051C25.0898 10.3066 24.9199 9.92578 24.9199 9.5625C24.9199 9.1875 24.9668 8.92969 25.0605 8.78906C25.166 8.63672 25.2715 8.56055 25.377 8.56055C25.4824 8.56055 25.5469 8.625 25.5703 8.75391C25.9453 8.63672 26.543 8.27344 27.3633 7.66406C28.1953 7.04297 28.9512 6.39844 29.6309 5.73047C30.3105 5.0625 30.6504 4.64648 30.6504 4.48242C30.6504 4.30664 30.5449 4.21875 30.334 4.21875C30.1348 4.21875 29.8594 4.28906 29.5078 4.42969C29.1562 4.57031 28.6875 4.86328 28.1016 5.30859C27.5156 5.74219 26.8828 6.30469 26.2031 6.99609C24.5625 8.63672 22.7344 10.9629 20.7188 13.9746C20.25 14.6543 19.5879 15.6445 18.7324 16.9453C16.9863 19.582 15.7383 21.3867 14.9883 22.3594C21 23.9414 25.2949 24.7324 27.873 24.7324C29.0684 24.7324 29.9062 24.5801 30.3867 24.2754C30.5625 24.1699 30.6797 24.1172 30.7383 24.1172C30.7969 24.1172 30.8262 24.1641 30.8262 24.2578C30.8262 24.3516 30.7734 24.4922 30.668 24.6797C30.5625 24.8672 30.2988 25.2656 29.877 25.875C29.4668 26.4844 29.1621 26.8477 28.9629 26.9648C28.3887 27.3047 27.4102 27.4746 26.0273 27.4746C24.6562 27.4746 23.3438 27.375 22.0898 27.1758C20.8477 26.9766 19.8457 26.7832 19.084 26.5957C18.3223 26.3965 17.1914 26.0801 15.6914 25.6465C14.2031 25.2129 13.2246 24.9316 12.7559 24.8027ZM6.33984 23.7305C4.80469 23.7305 4.03711 23.9121 4.03711 24.2754C4.03711 24.416 4.16602 24.5391 4.42383 24.6445C4.69336 24.75 5.00977 24.8027 5.37305 24.8027C6.50977 24.8027 7.60547 24.5039 8.66016 23.9062C7.75781 23.7891 6.98438 23.7305 6.33984 23.7305ZM39.0879 9.80859C39.0879 10.5703 40.418 10.9512 43.0781 10.9512C43.7344 10.9512 44.2207 10.8809 44.5371 10.7402C45.3691 10.3418 46.3887 10.1426 47.5957 10.1426C48.8145 10.1426 49.4238 10.4531 49.4238 11.0742C49.4238 11.3203 49.3184 11.6836 49.1074 12.1641C48.9082 12.6328 48.7559 12.9199 48.6504 13.0254C48.5566 13.1309 48.1816 13.2773 47.5254 13.4648C46.8691 13.6406 46.4414 13.7402 46.2422 13.7637C46.0547 13.7754 45.9258 13.7871 45.8555 13.7988C45.7969 13.8105 45.7207 13.8223 45.627 13.834C45.5449 13.8457 45.3516 13.8809 45.0469 13.9395C44.7422 13.9863 44.5195 13.9805 44.3789 13.9219C40.5 15.832 37.834 17.9297 36.3809 20.2148C35.7246 21.2461 35.3965 22.1309 35.3965 22.8691C35.3965 24.0293 36.1992 24.6094 37.8047 24.6094C39.0586 24.6094 40.6523 24.1172 42.5859 23.1328C44.5195 22.1484 46.2305 20.959 47.7188 19.5645C49.2188 18.1582 49.9688 16.9395 49.9688 15.9082C49.9688 15.5801 50.2148 15.416 50.707 15.416C51.8438 15.416 52.4121 16.0898 52.4121 17.4375C52.4121 18.0703 52.1367 18.8262 51.5859 19.7051C51.0352 20.5723 50.2676 21.457 49.2832 22.3594C48.2988 23.25 47.2031 24.082 45.9961 24.8555C44.7891 25.6289 43.4473 26.2617 41.9707 26.7539C40.5059 27.2461 39.2637 27.4922 38.2441 27.4922C37.2246 27.4922 36.3984 27.3926 35.7656 27.1934C35.1445 27.0059 34.5586 26.7188 34.0078 26.332C32.8125 25.5 32.2148 24.2402 32.2148 22.5527C32.2148 21.6387 32.4609 20.7129 32.9531 19.7754C33.4453 18.8262 34.0898 17.9648 34.8867 17.1914C36.3516 15.7383 37.9219 14.5312 39.5977 13.5703C37.1836 13.0195 35.9766 11.7773 35.9766 9.84375C35.9766 7.66406 37.6523 5.67188 41.0039 3.86719C42.8672 2.87109 44.8887 2.15625 47.0684 1.72266C48.0996 1.51172 48.9609 1.40625 49.6523 1.40625C51.0586 1.40625 52.1191 1.51758 52.834 1.74023C53.2676 1.95117 53.6191 2.25 53.8887 2.63672C54.1582 3.01172 54.293 3.33984 54.293 3.62109C54.293 3.89062 54.2578 4.13672 54.1875 4.35938C54.1172 4.58203 54 4.75781 53.8359 4.88672C53.6016 5.0625 53.3379 5.19727 53.0449 5.29102C52.752 5.38477 52.582 5.44336 52.5352 5.4668C51.6211 5.85352 50.8359 6.04688 50.1797 6.04688C49.0078 6.04688 48.3691 5.89453 48.2637 5.58984C48.2871 5.28516 48.416 4.93359 48.6504 4.53516C47.5371 4.58203 46.3828 4.81055 45.1875 5.2207C43.9922 5.61914 42.9551 6.09375 42.0762 6.64453C41.209 7.18359 40.4941 7.74609 39.9316 8.33203C39.3691 8.91797 39.0879 9.41016 39.0879 9.80859ZM68.0039 9L68.5137 8.87695C68.584 8.87695 68.6191 8.94727 68.6191 9.08789C68.6191 9.2168 68.4141 9.43359 68.0039 9.73828C67.6055 10.043 67.1191 10.1953 66.5449 10.1953C65.9824 10.1953 65.5371 10.0312 65.209 9.70312C64.8926 9.375 64.7344 8.94727 64.7344 8.41992C64.7344 7.30664 65.4609 6.20508 66.9141 5.11523C68.3672 4.01367 70.1543 3.13477 72.2754 2.47852C74.3965 1.81055 76.4297 1.47656 78.375 1.47656C81.2227 1.47656 83.3379 1.93945 84.7207 2.86523C86.1152 3.79102 86.8125 5.0332 86.8125 6.5918C86.8125 8.58398 85.4297 10.5117 82.6641 12.375C81.2109 13.3594 79.6406 14.1445 77.9531 14.7305C79.8047 14.9297 81.2812 15.5273 82.3828 16.5234C83.2148 17.2734 83.6309 18.2285 83.6309 19.3887C83.6309 20.5488 83.0742 21.7324 81.9609 22.9395C80.8594 24.1348 79.3887 25.1309 77.5488 25.9277C75.709 26.7129 73.8281 27.1055 71.9062 27.1055C69.6914 27.1055 68.0625 26.6191 67.0195 25.6465C66.5508 25.2012 66.3164 24.8086 66.3164 24.4688C66.3164 24.1172 66.4043 23.748 66.5801 23.3613C65.7246 24.9082 65.0977 26.0742 64.6992 26.8594C64.5234 27.2109 64.166 27.3867 63.627 27.3867C63.0996 27.3867 62.6895 27.2461 62.3965 26.9648C62.1035 26.6836 61.957 26.3672 61.957 26.0156C61.957 25.6641 62.0098 25.3535 62.1152 25.084C62.6426 23.7012 64.5 20.4668 67.6875 15.3809C70.8867 10.2832 72.8438 7.33008 73.5586 6.52148C73.9336 6.06445 74.7832 5.83594 76.1074 5.83594C76.6348 5.83594 76.8984 5.95313 76.8984 6.1875C76.8984 6.36328 76.1191 7.68164 74.5605 10.1426C73.002 12.6035 72.1875 13.8926 72.1172 14.0098C73.7461 13.541 75.4102 12.9023 77.1094 12.0938C78.8203 11.2734 80.3086 10.3477 81.5742 9.31641C82.8516 8.28516 83.4902 7.35352 83.4902 6.52148C83.4902 5.15039 82.002 4.46484 79.0254 4.46484C75.9082 4.46484 72.9082 5.29102 70.0254 6.94336C69.3105 7.35352 68.7656 7.72852 68.3906 8.06836C68.0156 8.4082 67.8281 8.64844 67.8281 8.78906C67.8281 8.92969 67.8867 9 68.0039 9ZM71.168 17.4023C70.957 17.4023 70.7227 17.1562 70.4648 16.6641C69.3516 18.4453 68.1855 20.4258 66.9668 22.6055C67.5176 21.8438 68.3203 21.4629 69.375 21.4629C70.0781 21.4629 70.4297 21.5508 70.4297 21.7266C70.4297 21.7969 70.3535 21.8613 70.2012 21.9199C69.7324 22.0957 69.498 22.3594 69.498 22.7109C69.498 23.5547 70.3945 23.9766 72.1875 23.9766C74.6133 23.9766 76.8105 23.1328 78.7793 21.4453C79.834 20.5547 80.3613 19.7754 80.3613 19.1074C80.3613 18.6973 79.9336 18.2461 79.0781 17.7539C78.082 17.2031 76.5645 16.9277 74.5254 16.9277C73.1074 16.9277 72.1992 17.0098 71.8008 17.1738C71.4023 17.3262 71.1914 17.4023 71.168 17.4023ZM107.256 2.33789C107.619 1.5293 107.877 1.125 108.029 1.125H108.117C108.293 1.125 108.65 1.3125 109.189 1.6875C109.729 2.0625 109.998 2.41406 109.998 2.74219C109.998 3.19922 108.498 6.73828 105.498 13.3594C102.498 19.9805 100.775 23.6953 100.33 24.5039C99.8965 25.3008 99.5977 25.834 99.4336 26.1035C99.2695 26.373 99.0469 26.6719 98.7656 27C98.2617 27.6211 97.6348 27.9316 96.8848 27.9316C96.5801 27.9316 96.3105 27.9668 96.0762 28.0371C95.8418 28.1191 95.7012 28.1602 95.6543 28.1602C95.2793 28.1602 95.0918 28.0723 95.0918 27.8965C95.0918 27.8613 95.1387 27.7148 95.2324 27.457C95.3379 27.2109 96.6797 24.3691 99.2578 18.9316C96.5039 18.8262 94.084 18.7441 91.998 18.6855C89.9941 21.2051 88.1777 23.8418 86.5488 26.5957C86.3496 26.9824 86.1621 27.252 85.9863 27.4043C85.8105 27.5684 85.5703 27.6504 85.2656 27.6504C84.9609 27.6504 84.6328 27.4922 84.2812 27.1758C83.9297 26.8711 83.7539 26.5137 83.7539 26.1035C83.7539 24.9316 85.2656 22.4238 88.2891 18.5801C86.8711 18.5801 85.9688 18.6152 85.582 18.6855C85.207 18.7559 84.9668 18.791 84.8613 18.791C84.5449 18.791 84.3867 18.5273 84.3867 18C84.3867 17.4609 84.6973 16.9922 85.3184 16.5938C85.9512 16.1836 86.7949 15.9785 87.8496 15.9785C87.9316 15.9785 88.0781 15.9727 88.2891 15.9609C89.0156 15.9258 89.7598 15.8965 90.5215 15.873C93.0762 12.873 95.748 10.0898 98.5371 7.52344C101.326 4.95703 103.74 3.1582 105.779 2.12695C106.107 1.96289 106.365 1.88672 106.553 1.89844C106.752 1.89844 106.986 2.04492 107.256 2.33789ZM106.025 4.81641C101.748 8.0625 97.8398 11.748 94.3008 15.873C96.375 15.9199 98.4727 16.0078 100.594 16.1367C102.727 11.6484 104.537 7.875 106.025 4.81641ZM121.055 2.02148L122.338 1.74023C122.666 1.74023 122.93 1.81055 123.129 1.95117C123.328 2.0918 123.428 2.22656 123.428 2.35547C123.428 2.47266 123.398 2.64844 123.34 2.88281C123.281 3.11719 122.807 5.40234 121.916 9.73828C121.025 14.0742 120.375 17.3086 119.965 19.4414C121.957 16.7344 124.283 13.4004 126.943 9.43945C129.604 5.47852 131.156 2.84766 131.602 1.54688C131.742 1.13672 131.924 0.820313 132.146 0.597656C132.369 0.375 132.568 0.246094 132.744 0.210938C132.92 0.164062 133.189 0.140625 133.553 0.140625C133.916 0.140625 134.344 0.222656 134.836 0.386719C135.34 0.539063 135.592 0.796875 135.592 1.16016C135.592 1.85156 134.566 3.84375 132.516 7.13672C130.465 10.4297 128.121 13.9277 125.484 17.6309C122.859 21.334 120.662 24.2637 118.893 26.4199C118.576 26.8066 118.189 27 117.732 27C117.287 27 116.812 26.9238 116.309 26.7715C115.816 26.6074 115.57 26.3262 115.57 25.9277C115.57 24.6387 116.701 18.4453 118.963 7.34766C117.029 9.85547 114.68 13.3477 111.914 17.8242C109.031 22.4531 107.402 25.3242 107.027 26.4375C106.816 27.1055 106.576 27.4922 106.307 27.5977C106.119 27.6797 105.92 27.7207 105.709 27.7207L104.32 27.8789C104.051 27.8789 103.805 27.8027 103.582 27.6504C103.348 27.498 103.23 27.3398 103.23 27.1758C103.23 26.707 103.875 25.3066 105.164 22.9746C106.465 20.6426 107.977 18.1113 109.699 15.3809C111.434 12.6387 113.244 9.97266 115.131 7.38281C117.018 4.79297 118.477 3.05273 119.508 2.16211C119.719 1.97461 119.959 1.88086 120.229 1.88086L121.055 2.02148ZM150.779 1.86328C152.654 1.86328 154.066 2.32617 155.016 3.25195C155.965 4.16602 156.439 5.27344 156.439 6.57422C156.439 7.875 156.164 9.27539 155.613 10.7754C155.062 12.2637 154.283 13.7988 153.275 15.3809C152.268 16.9512 151.125 18.4688 149.848 19.9336C148.57 21.3984 147.135 22.7344 145.541 23.9414C143.959 25.1484 142.383 26.0625 140.812 26.6836C140.918 26.7656 141.141 26.9473 141.48 27.2285C141.832 27.5098 142.078 27.7031 142.219 27.8086C142.359 27.9258 142.582 28.1074 142.887 28.3535C143.203 28.5996 143.438 28.7754 143.59 28.8809C143.754 28.9863 143.971 29.1328 144.24 29.3203C144.51 29.5195 144.727 29.6602 144.891 29.7422C145.066 29.8242 145.26 29.918 145.471 30.0234C145.846 30.2109 146.197 30.3047 146.525 30.3047C146.865 30.3047 147.146 30.2637 147.369 30.1816C147.592 30.0996 147.738 30.0059 147.809 29.9004C147.891 29.8066 147.961 29.7188 148.02 29.6367C148.078 29.5547 148.137 29.5137 148.195 29.5137C148.348 29.5137 148.424 29.5957 148.424 29.7598C148.424 29.9238 148.342 30.1465 148.178 30.4277C148.014 30.709 147.773 31.002 147.457 31.3066C147.152 31.623 146.637 31.9453 145.91 32.2734C145.184 32.6016 144.551 32.7656 144.012 32.7656C142.055 32.7656 139.271 30.6738 135.662 26.4902C134.549 27.0176 133.529 27.2812 132.604 27.2812C131.678 27.2812 130.84 26.8711 130.09 26.0508C129.34 25.2188 128.965 24.1582 128.965 22.8691C128.965 21.5684 129.422 19.957 130.336 18.0352C132.023 14.4258 134.291 11.3086 137.139 8.68359C142.096 4.13672 146.643 1.86328 150.779 1.86328ZM153.275 6.25781C153.275 5.22656 152.713 4.71094 151.588 4.71094C149.525 4.71094 147.41 5.29102 145.242 6.45117C143.086 7.59961 141.041 9.12305 139.107 11.0215C137.174 12.9199 135.568 15.0059 134.291 17.2793C133.025 19.541 132.393 21.334 132.393 22.6582C132.393 23.2676 132.545 23.6953 132.85 23.9414C133.506 23.9414 134.584 23.5488 136.084 22.7637C137.596 21.9668 138.92 20.918 140.057 19.6172C140.174 19.5 140.262 19.4414 140.32 19.4414C140.391 19.4414 140.438 19.4648 140.461 19.5117C140.484 19.5469 140.537 19.6289 140.619 19.7578C140.701 19.8867 140.777 20.0156 140.848 20.1445C141.035 20.5078 141.129 20.9121 141.129 21.3574C141.129 21.791 140.971 22.2539 140.654 22.7461C140.338 23.2383 139.682 23.877 138.686 24.6621C139.975 24.2051 141.732 22.8691 143.959 20.6543C146.186 18.4395 147.996 16.3477 149.391 14.3789C150.785 12.3984 151.781 10.6934 152.379 9.26367C152.977 7.82227 153.275 6.82031 153.275 6.25781ZM179.396 17.2793C179.713 17.2793 179.871 17.6953 179.871 18.5273C179.871 19.3594 179.818 19.916 179.713 20.1973C179.361 21.0996 178.541 22.1133 177.252 23.2383C175.975 24.3516 174.568 25.3008 173.033 26.0859C171.51 26.8594 170.256 27.2461 169.271 27.2461C168.803 27.2461 168.404 27.0645 168.076 26.7012C167.76 26.3379 167.602 25.8633 167.602 25.2773C167.602 24.2344 168.199 22.6406 169.395 20.4961C170.59 18.3516 172.037 16.1133 173.736 13.7812C170.912 17.0625 168.908 19.2773 167.725 20.4258C166.553 21.5742 165.504 22.5586 164.578 23.3789C163.652 24.1875 162.82 24.8379 162.082 25.3301C160.324 26.4902 158.93 27.0703 157.898 27.0703C156.867 27.0703 156.135 26.7891 155.701 26.2266C155.268 25.6523 155.051 25.0195 155.051 24.3281C155.051 22.3008 156.234 19.4531 158.602 15.7852C160.98 12.1055 163.166 9.09961 165.158 6.76758C163.471 8.25586 162.305 9 161.66 9C161.027 9 160.553 8.80664 160.236 8.41992C159.92 8.02148 159.762 7.57617 159.762 7.08398C159.762 6.58008 159.996 6.11133 160.465 5.67773C160.934 5.23242 161.273 5.00977 161.484 5.00977C161.707 5.00977 161.818 5.02734 161.818 5.0625C161.818 5.09766 161.73 5.22656 161.555 5.44922C161.379 5.66016 161.291 5.80664 161.291 5.88867C161.291 5.9707 161.367 6.01172 161.52 6.01172C161.977 6.01172 162.973 5.54883 164.508 4.62305C166.043 3.69727 167.355 2.79492 168.445 1.91602C168.738 1.66992 169.072 1.54688 169.447 1.54688C169.834 1.54688 170.203 1.64062 170.555 1.82812C170.578 1.76953 170.678 1.78125 170.854 1.86328C171.029 1.94531 171.205 2.07422 171.381 2.25C171.557 2.42578 171.645 2.58984 171.645 2.74219C171.645 2.89453 171.598 3.03516 171.504 3.16406C166.629 9.46875 163.564 13.5762 162.311 15.4863C159.768 19.3652 158.496 21.8848 158.496 23.0449C158.496 23.4551 158.666 23.6602 159.006 23.6602C159.357 23.6602 160.336 23.0039 161.941 21.6914C166.348 18.1055 172.523 11.7773 180.469 2.70703C180.785 2.34375 181.084 2.17383 181.365 2.19727H181.523C181.57 2.19727 181.699 2.17969 181.91 2.14453C182.133 2.09766 182.49 2.07422 182.982 2.07422C184.154 2.07422 184.74 2.29102 184.74 2.72461C184.74 2.91211 184.564 3.24023 184.213 3.70898C183.873 4.17773 183.158 5.18555 182.068 6.73242C180.979 8.2793 179.619 10.2422 177.99 12.6211C176.373 15 174.973 17.1855 173.789 19.1777C172.617 21.1699 172.031 22.4355 172.031 22.9746C172.031 22.9863 172.049 22.9922 172.084 22.9922C172.131 22.9922 172.318 22.9102 172.646 22.7461C173.654 22.2188 174.832 21.3809 176.18 20.2324C177.539 19.084 178.395 18.3047 178.746 17.8945C179.109 17.4844 179.326 17.2793 179.396 17.2793ZM188.467 9.80859C188.467 10.5703 189.797 10.9512 192.457 10.9512C193.113 10.9512 193.6 10.8809 193.916 10.7402C194.748 10.3418 195.768 10.1426 196.975 10.1426C198.193 10.1426 198.803 10.4531 198.803 11.0742C198.803 11.3203 198.697 11.6836 198.486 12.1641C198.287 12.6328 198.135 12.9199 198.029 13.0254C197.936 13.1309 197.561 13.2773 196.904 13.4648C196.248 13.6406 195.82 13.7402 195.621 13.7637C195.434 13.7754 195.305 13.7871 195.234 13.7988C195.176 13.8105 195.1 13.8223 195.006 13.834C194.924 13.8457 194.73 13.8809 194.426 13.9395C194.121 13.9863 193.898 13.9805 193.758 13.9219C189.879 15.832 187.213 17.9297 185.76 20.2148C185.104 21.2461 184.775 22.1309 184.775 22.8691C184.775 24.0293 185.578 24.6094 187.184 24.6094C188.438 24.6094 190.031 24.1172 191.965 23.1328C193.898 22.1484 195.609 20.959 197.098 19.5645C198.598 18.1582 199.348 16.9395 199.348 15.9082C199.348 15.5801 199.594 15.416 200.086 15.416C201.223 15.416 201.791 16.0898 201.791 17.4375C201.791 18.0703 201.516 18.8262 200.965 19.7051C200.414 20.5723 199.646 21.457 198.662 22.3594C197.678 23.25 196.582 24.082 195.375 24.8555C194.168 25.6289 192.826 26.2617 191.35 26.7539C189.885 27.2461 188.643 27.4922 187.623 27.4922C186.604 27.4922 185.777 27.3926 185.145 27.1934C184.523 27.0059 183.938 26.7188 183.387 26.332C182.191 25.5 181.594 24.2402 181.594 22.5527C181.594 21.6387 181.84 20.7129 182.332 19.7754C182.824 18.8262 183.469 17.9648 184.266 17.1914C185.73 15.7383 187.301 14.5312 188.977 13.5703C186.562 13.0195 185.355 11.7773 185.355 9.84375C185.355 7.66406 187.031 5.67188 190.383 3.86719C192.246 2.87109 194.268 2.15625 196.447 1.72266C197.479 1.51172 198.34 1.40625 199.031 1.40625C200.438 1.40625 201.498 1.51758 202.213 1.74023C202.646 1.95117 202.998 2.25 203.268 2.63672C203.537 3.01172 203.672 3.33984 203.672 3.62109C203.672 3.89062 203.637 4.13672 203.566 4.35938C203.496 4.58203 203.379 4.75781 203.215 4.88672C202.98 5.0625 202.717 5.19727 202.424 5.29102C202.131 5.38477 201.961 5.44336 201.914 5.4668C201 5.85352 200.215 6.04688 199.559 6.04688C198.387 6.04688 197.748 5.89453 197.643 5.58984C197.666 5.28516 197.795 4.93359 198.029 4.53516C196.916 4.58203 195.762 4.81055 194.566 5.2207C193.371 5.61914 192.334 6.09375 191.455 6.64453C190.588 7.18359 189.873 7.74609 189.311 8.33203C188.748 8.91797 188.467 9.41016 188.467 9.80859ZM209.35 21.4102L209.262 21.7793C209.262 21.8496 209.291 21.9141 209.35 21.9727C209.42 22.0312 209.502 22.0605 209.596 22.0605C209.689 22.0605 209.766 22.0137 209.824 21.9199C211.57 19.5996 213.018 17.5605 214.166 15.8027C215.314 14.0332 216.152 12.7324 216.68 11.9004C217.219 11.0684 217.646 10.4062 217.963 9.91406C218.807 8.625 219.645 7.4707 220.477 6.45117C217.312 7.24805 214.834 7.64648 213.041 7.64648C211.248 7.64648 209.959 7.53516 209.174 7.3125C208.389 7.07812 207.873 6.82031 207.627 6.53906C207.381 6.24609 207.258 5.95313 207.258 5.66016C207.258 5.35547 207.27 5.0625 207.293 4.78125C207.34 4.19531 207.691 3.71484 208.348 3.33984C209.016 2.96484 209.566 2.77734 210 2.77734C210.434 2.77734 210.65 2.8418 210.65 2.9707C210.65 3.09961 210.551 3.27539 210.352 3.49805C210.164 3.70898 210.07 3.85547 210.07 3.9375C210.07 4.3125 211.424 4.5 214.131 4.5C216.838 4.5 219.949 4.14258 223.465 3.42773C225.48 1.78711 227.221 0.966797 228.686 0.966797C229.658 0.966797 230.303 1.24219 230.619 1.79297C230.83 2.12109 230.936 2.44922 230.936 2.77734C230.936 3.10547 230.742 3.43359 230.355 3.76172C229.98 4.08984 229.471 4.37109 228.826 4.60547C227.654 5.02734 226.271 5.36133 224.678 5.60742C224.01 6.46289 223.061 7.79297 221.83 9.59766C220.611 11.4023 219.779 12.6211 219.334 13.2539C218.889 13.8867 218.168 15.0117 217.172 16.6289C216.188 18.2461 215.332 19.6465 214.605 20.8301C213.879 22.002 213.105 23.1621 212.285 24.3105C210.609 26.6777 209.115 27.8613 207.803 27.8613C207.252 27.8613 206.777 27.7148 206.379 27.4219C205.98 27.1289 205.781 26.6543 205.781 25.998C205.781 25.3301 206.145 24.5039 206.871 23.5195C207.609 22.5234 208.148 21.8848 208.488 21.6035C208.828 21.3223 209.057 21.1816 209.174 21.1816C209.291 21.1816 209.35 21.2578 209.35 21.4102Z" fill="url(#paint0_linear_0_1)"/>
    <line x1="3" y1="38.5" x2="52" y2="38.5" stroke="#524C4C"/>
    <path d="M63.321 44V33.0909H67.0071C67.8594 33.0909 68.5589 33.2365 69.1058 33.5277C69.6527 33.8153 70.0575 34.2113 70.3203 34.7156C70.5831 35.2198 70.7145 35.7933 70.7145 36.4361C70.7145 37.0788 70.5831 37.6488 70.3203 38.146C70.0575 38.6431 69.6545 39.0337 69.1112 39.3178C68.5678 39.5984 67.8736 39.7386 67.0284 39.7386H64.0455V38.5455H66.9858C67.5682 38.5455 68.0369 38.4602 68.392 38.2898C68.7507 38.1193 69.0099 37.8778 69.1697 37.5653C69.3331 37.2493 69.4148 36.8729 69.4148 36.4361C69.4148 35.9993 69.3331 35.6175 69.1697 35.2908C69.0064 34.9641 68.7454 34.712 68.3867 34.5344C68.0281 34.3533 67.554 34.2628 66.9645 34.2628H64.642V44H63.321ZM68.456 39.0994L71.1406 44H69.6065L66.9645 39.0994H68.456ZM72.9157 44V33.0909H79.4996V34.2628H74.2368V37.9489H79.1586V39.1207H74.2368V42.8281H79.5848V44H72.9157ZM87.8465 35.8182C87.7826 35.2784 87.5233 34.8594 87.0688 34.5611C86.6143 34.2628 86.0567 34.1136 85.3962 34.1136C84.9133 34.1136 84.4907 34.1918 84.1285 34.348C83.7698 34.5043 83.4893 34.7191 83.2868 34.9925C83.088 35.266 82.9885 35.5767 82.9885 35.9247C82.9885 36.2159 83.0578 36.4663 83.1963 36.6758C83.3383 36.8817 83.5194 37.054 83.7396 37.1925C83.9598 37.3274 84.1906 37.4393 84.4321 37.5281C84.6736 37.6133 84.8955 37.6825 85.0979 37.7358L86.2059 38.0341C86.49 38.1087 86.806 38.2116 87.154 38.343C87.5056 38.4744 87.8412 38.6538 88.1608 38.881C88.4839 39.1048 88.7503 39.3924 88.9598 39.744C89.1693 40.0955 89.2741 40.527 89.2741 41.0384C89.2741 41.6278 89.1196 42.1605 88.8106 42.6364C88.5052 43.1122 88.0578 43.4904 87.4683 43.771C86.8824 44.0515 86.1704 44.1918 85.3323 44.1918C84.551 44.1918 83.8746 44.0657 83.3028 43.8136C82.7346 43.5614 82.2872 43.2099 81.9605 42.7589C81.6373 42.3079 81.4545 41.7841 81.4118 41.1875H82.7755C82.811 41.5994 82.9495 41.9403 83.191 42.2102C83.436 42.4766 83.7449 42.6754 84.1178 42.8068C84.4942 42.9347 84.8991 42.9986 85.3323 42.9986C85.8366 42.9986 86.2893 42.9169 86.6906 42.7536C87.0919 42.5866 87.4097 42.3558 87.6441 42.0611C87.8785 41.7628 87.9957 41.4148 87.9957 41.017C87.9957 40.6548 87.8944 40.3601 87.692 40.1328C87.4896 39.9055 87.2233 39.7209 86.893 39.5788C86.5628 39.4368 86.2059 39.3125 85.8224 39.206L84.48 38.8224C83.6278 38.5774 82.953 38.2276 82.4559 37.7731C81.9587 37.3185 81.7101 36.7237 81.7101 35.9886C81.7101 35.3778 81.8753 34.8452 82.2055 34.3906C82.5393 33.9325 82.9868 33.5774 83.5479 33.3253C84.1125 33.0696 84.7428 32.9418 85.4388 32.9418C86.142 32.9418 86.767 33.0678 87.3138 33.32C87.8607 33.5685 88.2939 33.9094 88.6135 34.3427C88.9367 34.7759 89.1072 35.2678 89.1249 35.8182H87.8465ZM90.8494 34.2628V33.0909H99.0312V34.2628H95.6009V44H94.2798V34.2628H90.8494ZM100.243 44H98.8581L102.864 33.0909H104.227L108.233 44H106.848L103.588 34.8168H103.503L100.243 44ZM100.754 39.7386H106.337V40.9105H100.754V39.7386ZM117.091 33.0909H118.412V40.3139C118.412 41.0597 118.237 41.7255 117.885 42.3114C117.537 42.8938 117.045 43.3537 116.41 43.6911C115.774 44.0249 115.028 44.1918 114.172 44.1918C113.317 44.1918 112.571 44.0249 111.935 43.6911C111.3 43.3537 110.806 42.8938 110.454 42.3114C110.106 41.7255 109.932 41.0597 109.932 40.3139V33.0909H111.253V40.2074C111.253 40.7401 111.371 41.2141 111.605 41.6296C111.839 42.0415 112.173 42.3665 112.606 42.6044C113.043 42.8388 113.565 42.956 114.172 42.956C114.78 42.956 115.302 42.8388 115.738 42.6044C116.175 42.3665 116.509 42.0415 116.74 41.6296C116.974 41.2141 117.091 40.7401 117.091 40.2074V33.0909ZM121.051 44V33.0909H124.737C125.589 33.0909 126.288 33.2365 126.835 33.5277C127.382 33.8153 127.787 34.2113 128.05 34.7156C128.313 35.2198 128.444 35.7933 128.444 36.4361C128.444 37.0788 128.313 37.6488 128.05 38.146C127.787 38.6431 127.384 39.0337 126.841 39.3178C126.297 39.5984 125.603 39.7386 124.758 39.7386H121.775V38.5455H124.715C125.298 38.5455 125.766 38.4602 126.122 38.2898C126.48 38.1193 126.739 37.8778 126.899 37.5653C127.063 37.2493 127.144 36.8729 127.144 36.4361C127.144 35.9993 127.063 35.6175 126.899 35.2908C126.736 34.9641 126.475 34.712 126.116 34.5344C125.758 34.3533 125.283 34.2628 124.694 34.2628H122.372V44H121.051ZM126.185 39.0994L128.87 44H127.336L124.694 39.0994H126.185ZM131.093 44H129.708L133.713 33.0909H135.077L139.083 44H137.698L134.438 34.8168H134.353L131.093 44ZM131.604 39.7386H137.186V40.9105H131.604V39.7386ZM149.433 33.0909V44H148.154L142.21 35.4347H142.103V44H140.782V33.0909H142.06L148.026 41.6776H148.133V33.0909H149.433ZM151.479 34.2628V33.0909H159.661V34.2628H156.231V44H154.91V34.2628H151.479Z" fill="#51514E"/>
    <line x1="175" y1="38.5" x2="223" y2="38.5" stroke="#5B5757"/>
    <defs>
        <linearGradient id="paint0_linear_0_1" x1="3" y1="14.5" x2="234" y2="14.5" gradientUnits="userSpaceOnUse">
            <stop stop-color="#C70505"/>
            <stop offset="1" stop-color="#2D2805"/>
        </linearGradient>
    </defs>
</svg>
