<svg width="206" height="42" viewBox="0 0 206 42" fill="none" xmlns="http://www.w3.org/2000/svg">
    <path d="M11.6719 22.0469C9.73438 23.776 7.42188 24.6406 4.73438 24.6406C3.10938 24.6406 1.94792 24.2969 1.25 23.6094C0.854167 23.2344 0.65625 22.5729 0.65625 21.625C0.65625 20.1667 1.76562 19.224 3.98438 18.7969C4.68229 18.6615 5.52083 18.5938 6.5 18.5938C7.47917 18.5938 8.81771 18.776 10.5156 19.1406C11.4219 18.1302 12.5 16.6458 13.75 14.6875C15.0104 12.7188 16.0052 11.2031 16.7344 10.1406C17.4635 9.07812 18.2917 7.99479 19.2188 6.89062C20.1458 5.77604 21.1146 4.77083 22.125 3.875C24.1771 2.04167 26.2083 1.125 28.2188 1.125C29.1146 1.125 29.7604 1.35417 30.1562 1.8125C30.5521 2.26042 30.75 2.79688 30.75 3.42188C30.75 4.03646 30.4635 4.75521 29.8906 5.57812C29.3281 6.40104 28.6719 7.13021 27.9219 7.76562C27.1823 8.40104 26.4479 8.94271 25.7188 9.39062C25 9.82812 24.4323 10.0469 24.0156 10.0469C23.599 10.0469 23.2396 9.86979 22.9375 9.51562C22.6354 9.16146 22.4844 8.82292 22.4844 8.5C22.4844 8.16667 22.526 7.9375 22.6094 7.8125C22.7031 7.67708 22.7969 7.60938 22.8906 7.60938C22.9844 7.60938 23.0417 7.66667 23.0625 7.78125C23.3958 7.67708 23.9271 7.35417 24.6562 6.8125C25.3958 6.26042 26.0677 5.6875 26.6719 5.09375C27.276 4.5 27.5781 4.13021 27.5781 3.98438C27.5781 3.82812 27.4844 3.75 27.2969 3.75C27.1198 3.75 26.875 3.8125 26.5625 3.9375C26.25 4.0625 25.8333 4.32292 25.3125 4.71875C24.7917 5.10417 24.2292 5.60417 23.625 6.21875C22.1667 7.67708 20.5417 9.74479 18.75 12.4219C18.3333 13.026 17.7448 13.9062 16.9844 15.0625C15.4323 17.4062 14.3229 19.0104 13.6562 19.875C19 21.2812 22.8177 21.9844 25.1094 21.9844C26.1719 21.9844 26.9167 21.849 27.3438 21.5781C27.5 21.4844 27.6042 21.4375 27.6562 21.4375C27.7083 21.4375 27.7344 21.4792 27.7344 21.5625C27.7344 21.6458 27.6875 21.7708 27.5938 21.9375C27.5 22.1042 27.2656 22.4583 26.8906 23C26.526 23.5417 26.2552 23.8646 26.0781 23.9688C25.5677 24.2708 24.6979 24.4219 23.4688 24.4219C22.25 24.4219 21.0833 24.3333 19.9688 24.1562C18.8646 23.9792 17.974 23.8073 17.2969 23.6406C16.6198 23.4635 15.6146 23.1823 14.2812 22.7969C12.9583 22.4115 12.0885 22.1615 11.6719 22.0469ZM5.96875 21.0938C4.60417 21.0938 3.92188 21.2552 3.92188 21.5781C3.92188 21.7031 4.03646 21.8125 4.26562 21.9062C4.50521 22 4.78646 22.0469 5.10938 22.0469C6.11979 22.0469 7.09375 21.7812 8.03125 21.25C7.22917 21.1458 6.54167 21.0938 5.96875 21.0938ZM35.0781 8.71875C35.0781 9.39583 36.2604 9.73438 38.625 9.73438C39.2083 9.73438 39.6406 9.67188 39.9219 9.54688C40.6615 9.19271 41.5677 9.01562 42.6406 9.01562C43.724 9.01562 44.2656 9.29167 44.2656 9.84375C44.2656 10.0625 44.1719 10.3854 43.9844 10.8125C43.8073 11.2292 43.6719 11.4844 43.5781 11.5781C43.4948 11.6719 43.1615 11.8021 42.5781 11.9688C41.9948 12.125 41.6146 12.2135 41.4375 12.2344C41.2708 12.2448 41.1562 12.2552 41.0938 12.2656C41.0417 12.276 40.974 12.2865 40.8906 12.2969C40.8177 12.3073 40.6458 12.3385 40.375 12.3906C40.1042 12.4323 39.9062 12.4271 39.7812 12.375C36.3333 14.0729 33.9635 15.9375 32.6719 17.9688C32.0885 18.8854 31.7969 19.6719 31.7969 20.3281C31.7969 21.3594 32.5104 21.875 33.9375 21.875C35.0521 21.875 36.4688 21.4375 38.1875 20.5625C39.9062 19.6875 41.4271 18.6302 42.75 17.3906C44.0833 16.1406 44.75 15.0573 44.75 14.1406C44.75 13.849 44.9688 13.7031 45.4062 13.7031C46.4167 13.7031 46.9219 14.3021 46.9219 15.5C46.9219 16.0625 46.6771 16.7344 46.1875 17.5156C45.6979 18.2865 45.0156 19.0729 44.1406 19.875C43.2656 20.6667 42.2917 21.4062 41.2188 22.0938C40.1458 22.7812 38.9531 23.3438 37.6406 23.7812C36.3385 24.2188 35.2344 24.4375 34.3281 24.4375C33.4219 24.4375 32.6875 24.349 32.125 24.1719C31.5729 24.0052 31.0521 23.75 30.5625 23.4062C29.5 22.6667 28.9688 21.5469 28.9688 20.0469C28.9688 19.2344 29.1875 18.4115 29.625 17.5781C30.0625 16.7344 30.6354 15.9688 31.3438 15.2812C32.6458 13.9896 34.0417 12.9167 35.5312 12.0625C33.3854 11.5729 32.3125 10.4688 32.3125 8.75C32.3125 6.8125 33.8021 5.04167 36.7812 3.4375C38.4375 2.55208 40.2344 1.91667 42.1719 1.53125C43.0885 1.34375 43.8542 1.25 44.4688 1.25C45.7188 1.25 46.6615 1.34896 47.2969 1.54688C47.6823 1.73438 47.9948 2 48.2344 2.34375C48.474 2.67708 48.5938 2.96875 48.5938 3.21875C48.5938 3.45833 48.5625 3.67708 48.5 3.875C48.4375 4.07292 48.3333 4.22917 48.1875 4.34375C47.9792 4.5 47.7448 4.61979 47.4844 4.70312C47.224 4.78646 47.0729 4.83854 47.0312 4.85938C46.2188 5.20312 45.5208 5.375 44.9375 5.375C43.8958 5.375 43.3281 5.23958 43.2344 4.96875C43.2552 4.69792 43.3698 4.38542 43.5781 4.03125C42.5885 4.07292 41.5625 4.27604 40.5 4.64062C39.4375 4.99479 38.5156 5.41667 37.7344 5.90625C36.9635 6.38542 36.3281 6.88542 35.8281 7.40625C35.3281 7.92708 35.0781 8.36458 35.0781 8.71875ZM60.7812 8L61.2344 7.89062C61.2969 7.89062 61.3281 7.95312 61.3281 8.07812C61.3281 8.19271 61.1458 8.38542 60.7812 8.65625C60.4271 8.92708 59.9948 9.0625 59.4844 9.0625C58.9844 9.0625 58.5885 8.91667 58.2969 8.625C58.0156 8.33333 57.875 7.95312 57.875 7.48438C57.875 6.49479 58.5208 5.51562 59.8125 4.54688C61.1042 3.56771 62.6927 2.78646 64.5781 2.20312C66.4635 1.60938 68.2708 1.3125 70 1.3125C72.5312 1.3125 74.4115 1.72396 75.6406 2.54688C76.8802 3.36979 77.5 4.47396 77.5 5.85938C77.5 7.63021 76.2708 9.34375 73.8125 11C72.5208 11.875 71.125 12.5729 69.625 13.0938C71.2708 13.2708 72.5833 13.8021 73.5625 14.6875C74.3021 15.3542 74.6719 16.2031 74.6719 17.2344C74.6719 18.2656 74.1771 19.3177 73.1875 20.3906C72.2083 21.4531 70.901 22.3385 69.2656 23.0469C67.6302 23.7448 65.9583 24.0938 64.25 24.0938C62.2812 24.0938 60.8333 23.6615 59.9062 22.7969C59.4896 22.401 59.2812 22.0521 59.2812 21.75C59.2812 21.4375 59.3594 21.1094 59.5156 20.7656C58.7552 22.1406 58.1979 23.1771 57.8438 23.875C57.6875 24.1875 57.3698 24.3438 56.8906 24.3438C56.4219 24.3438 56.0573 24.2188 55.7969 23.9688C55.5365 23.7188 55.4062 23.4375 55.4062 23.125C55.4062 22.8125 55.4531 22.5365 55.5469 22.2969C56.0156 21.0677 57.6667 18.1927 60.5 13.6719C63.3438 9.14062 65.0833 6.51562 65.7188 5.79688C66.0521 5.39062 66.8073 5.1875 67.9844 5.1875C68.4531 5.1875 68.6875 5.29167 68.6875 5.5C68.6875 5.65625 67.9948 6.82812 66.6094 9.01562C65.224 11.2031 64.5 12.349 64.4375 12.4531C65.8854 12.0365 67.3646 11.4688 68.875 10.75C70.3958 10.0208 71.7188 9.19792 72.8438 8.28125C73.9792 7.36458 74.5469 6.53646 74.5469 5.79688C74.5469 4.57812 73.224 3.96875 70.5781 3.96875C67.8073 3.96875 65.1406 4.70312 62.5781 6.17188C61.9427 6.53646 61.4583 6.86979 61.125 7.17188C60.7917 7.47396 60.625 7.6875 60.625 7.8125C60.625 7.9375 60.6771 8 60.7812 8ZM63.5938 15.4688C63.4062 15.4688 63.1979 15.25 62.9688 14.8125C61.9792 16.3958 60.9427 18.1562 59.8594 20.0938C60.349 19.4167 61.0625 19.0781 62 19.0781C62.625 19.0781 62.9375 19.1562 62.9375 19.3125C62.9375 19.375 62.8698 19.4323 62.7344 19.4844C62.3177 19.6406 62.1094 19.875 62.1094 20.1875C62.1094 20.9375 62.9062 21.3125 64.5 21.3125C66.6562 21.3125 68.6094 20.5625 70.3594 19.0625C71.2969 18.2708 71.7656 17.5781 71.7656 16.9844C71.7656 16.6198 71.3854 16.2188 70.625 15.7812C69.7396 15.2917 68.3906 15.0469 66.5781 15.0469C65.3177 15.0469 64.5104 15.1198 64.1562 15.2656C63.8021 15.401 63.6146 15.4688 63.5938 15.4688ZM95.6719 2.07812C95.9948 1.35938 96.224 1 96.3594 1H96.4375C96.5938 1 96.9115 1.16667 97.3906 1.5C97.8698 1.83333 98.1094 2.14583 98.1094 2.4375C98.1094 2.84375 96.776 5.98958 94.1094 11.875C91.4427 17.7604 89.9115 21.0625 89.5156 21.7812C89.1302 22.4896 88.8646 22.9635 88.7188 23.2031C88.5729 23.4427 88.375 23.7083 88.125 24C87.6771 24.5521 87.1198 24.8281 86.4531 24.8281C86.1823 24.8281 85.9427 24.8594 85.7344 24.9219C85.526 24.9948 85.401 25.0312 85.3594 25.0312C85.026 25.0312 84.8594 24.9531 84.8594 24.7969C84.8594 24.7656 84.901 24.6354 84.9844 24.4062C85.0781 24.1875 86.2708 21.6615 88.5625 16.8281C86.1146 16.7344 83.9635 16.6615 82.1094 16.6094C80.3281 18.849 78.7135 21.1927 77.2656 23.6406C77.0885 23.9844 76.9219 24.224 76.7656 24.3594C76.6094 24.5052 76.3958 24.5781 76.125 24.5781C75.8542 24.5781 75.5625 24.4375 75.25 24.1562C74.9375 23.8854 74.7812 23.5677 74.7812 23.2031C74.7812 22.1615 76.125 19.9323 78.8125 16.5156C77.5521 16.5156 76.75 16.5469 76.4062 16.6094C76.0729 16.6719 75.8594 16.7031 75.7656 16.7031C75.4844 16.7031 75.3438 16.4688 75.3438 16C75.3438 15.5208 75.6198 15.1042 76.1719 14.75C76.7344 14.3854 77.4844 14.2031 78.4219 14.2031C78.4948 14.2031 78.625 14.1979 78.8125 14.1875C79.4583 14.1562 80.1198 14.1302 80.7969 14.1094C83.0677 11.4427 85.4427 8.96875 87.9219 6.6875C90.401 4.40625 92.5469 2.80729 94.3594 1.89062C94.651 1.74479 94.8802 1.67708 95.0469 1.6875C95.224 1.6875 95.4323 1.81771 95.6719 2.07812ZM94.5781 4.28125C90.776 7.16667 87.3021 10.4427 84.1562 14.1094C86 14.151 87.8646 14.2292 89.75 14.3438C91.6458 10.3542 93.2552 7 94.5781 4.28125ZM107.938 1.79688L109.078 1.54688C109.37 1.54688 109.604 1.60938 109.781 1.73438C109.958 1.85938 110.047 1.97917 110.047 2.09375C110.047 2.19792 110.021 2.35417 109.969 2.5625C109.917 2.77083 109.495 4.80208 108.703 8.65625C107.911 12.5104 107.333 15.3854 106.969 17.2812C108.74 14.875 110.807 11.9115 113.172 8.39062C115.536 4.86979 116.917 2.53125 117.312 1.375C117.438 1.01042 117.599 0.729167 117.797 0.53125C117.995 0.333333 118.172 0.21875 118.328 0.1875C118.484 0.145833 118.724 0.125 119.047 0.125C119.37 0.125 119.75 0.197917 120.188 0.34375C120.635 0.479167 120.859 0.708333 120.859 1.03125C120.859 1.64583 119.948 3.41667 118.125 6.34375C116.302 9.27083 114.219 12.3802 111.875 15.6719C109.542 18.9635 107.589 21.5677 106.016 23.4844C105.734 23.8281 105.391 24 104.984 24C104.589 24 104.167 23.9323 103.719 23.7969C103.281 23.651 103.062 23.401 103.062 23.0469C103.062 21.901 104.068 16.3958 106.078 6.53125C104.359 8.76042 102.271 11.8646 99.8125 15.8438C97.25 19.9583 95.8021 22.5104 95.4688 23.5C95.2812 24.0938 95.0677 24.4375 94.8281 24.5312C94.6615 24.6042 94.4844 24.6406 94.2969 24.6406L93.0625 24.7812C92.8229 24.7812 92.6042 24.7135 92.4062 24.5781C92.1979 24.4427 92.0938 24.3021 92.0938 24.1562C92.0938 23.7396 92.6667 22.4948 93.8125 20.4219C94.9688 18.349 96.3125 16.099 97.8438 13.6719C99.3854 11.2344 100.995 8.86458 102.672 6.5625C104.349 4.26042 105.646 2.71354 106.562 1.92188C106.75 1.75521 106.964 1.67188 107.203 1.67188L107.938 1.79688ZM134.359 1.65625C136.026 1.65625 137.281 2.06771 138.125 2.89062C138.969 3.70312 139.391 4.6875 139.391 5.84375C139.391 7 139.146 8.24479 138.656 9.57812C138.167 10.901 137.474 12.2656 136.578 13.6719C135.682 15.0677 134.667 16.4167 133.531 17.7188C132.396 19.0208 131.12 20.2083 129.703 21.2812C128.297 22.3542 126.896 23.1667 125.5 23.7188C125.594 23.7917 125.792 23.9531 126.094 24.2031C126.406 24.4531 126.625 24.625 126.75 24.7188C126.875 24.8229 127.073 24.9844 127.344 25.2031C127.625 25.4219 127.833 25.5781 127.969 25.6719C128.115 25.7656 128.307 25.8958 128.547 26.0625C128.786 26.2396 128.979 26.3646 129.125 26.4375C129.281 26.5104 129.453 26.5938 129.641 26.6875C129.974 26.8542 130.286 26.9375 130.578 26.9375C130.88 26.9375 131.13 26.901 131.328 26.8281C131.526 26.7552 131.656 26.6719 131.719 26.5781C131.792 26.4948 131.854 26.4167 131.906 26.3438C131.958 26.2708 132.01 26.2344 132.062 26.2344C132.198 26.2344 132.266 26.3073 132.266 26.4531C132.266 26.599 132.193 26.7969 132.047 27.0469C131.901 27.2969 131.688 27.5573 131.406 27.8281C131.135 28.1094 130.677 28.3958 130.031 28.6875C129.385 28.9792 128.823 29.125 128.344 29.125C126.604 29.125 124.13 27.2656 120.922 23.5469C119.932 24.0156 119.026 24.25 118.203 24.25C117.38 24.25 116.635 23.8854 115.969 23.1562C115.302 22.4167 114.969 21.474 114.969 20.3281C114.969 19.1719 115.375 17.7396 116.188 16.0312C117.688 12.8229 119.703 10.0521 122.234 7.71875C126.641 3.67708 130.682 1.65625 134.359 1.65625ZM136.578 5.5625C136.578 4.64583 136.078 4.1875 135.078 4.1875C133.245 4.1875 131.365 4.70312 129.438 5.73438C127.521 6.75521 125.703 8.10938 123.984 9.79688C122.266 11.4844 120.839 13.3385 119.703 15.3594C118.578 17.3698 118.016 18.9635 118.016 20.1406C118.016 20.6823 118.151 21.0625 118.422 21.2812C119.005 21.2812 119.964 20.9323 121.297 20.2344C122.641 19.526 123.818 18.5938 124.828 17.4375C124.932 17.3333 125.01 17.2812 125.062 17.2812C125.125 17.2812 125.167 17.3021 125.188 17.3438C125.208 17.375 125.255 17.4479 125.328 17.5625C125.401 17.6771 125.469 17.7917 125.531 17.9062C125.698 18.2292 125.781 18.5885 125.781 18.9844C125.781 19.3698 125.641 19.7812 125.359 20.2188C125.078 20.6562 124.495 21.224 123.609 21.9219C124.755 21.5156 126.318 20.3281 128.297 18.3594C130.276 16.3906 131.885 14.5312 133.125 12.7812C134.365 11.0208 135.25 9.50521 135.781 8.23438C136.312 6.95312 136.578 6.0625 136.578 5.5625ZM159.797 15.3594C160.078 15.3594 160.219 15.7292 160.219 16.4688C160.219 17.2083 160.172 17.7031 160.078 17.9531C159.766 18.7552 159.036 19.6562 157.891 20.6562C156.755 21.6458 155.505 22.4896 154.141 23.1875C152.786 23.875 151.672 24.2188 150.797 24.2188C150.38 24.2188 150.026 24.0573 149.734 23.7344C149.453 23.4115 149.312 22.9896 149.312 22.4688C149.312 21.5417 149.844 20.125 150.906 18.2188C151.969 16.3125 153.255 14.3229 154.766 12.25C152.255 15.1667 150.474 17.1354 149.422 18.1562C148.38 19.1771 147.448 20.0521 146.625 20.7812C145.802 21.5 145.062 22.0781 144.406 22.5156C142.844 23.5469 141.604 24.0625 140.688 24.0625C139.771 24.0625 139.12 23.8125 138.734 23.3125C138.349 22.8021 138.156 22.2396 138.156 21.625C138.156 19.8229 139.208 17.2917 141.312 14.0312C143.427 10.7604 145.37 8.08854 147.141 6.01562C145.641 7.33854 144.604 8 144.031 8C143.469 8 143.047 7.82812 142.766 7.48438C142.484 7.13021 142.344 6.73438 142.344 6.29688C142.344 5.84896 142.552 5.43229 142.969 5.04688C143.385 4.65104 143.688 4.45312 143.875 4.45312C144.073 4.45312 144.172 4.46875 144.172 4.5C144.172 4.53125 144.094 4.64583 143.938 4.84375C143.781 5.03125 143.703 5.16146 143.703 5.23438C143.703 5.30729 143.771 5.34375 143.906 5.34375C144.312 5.34375 145.198 4.93229 146.562 4.10938C147.927 3.28646 149.094 2.48438 150.062 1.70312C150.323 1.48438 150.62 1.375 150.953 1.375C151.297 1.375 151.625 1.45833 151.938 1.625C151.958 1.57292 152.047 1.58333 152.203 1.65625C152.359 1.72917 152.516 1.84375 152.672 2C152.828 2.15625 152.906 2.30208 152.906 2.4375C152.906 2.57292 152.865 2.69792 152.781 2.8125C148.448 8.41667 145.724 12.0677 144.609 13.7656C142.349 17.2135 141.219 19.4531 141.219 20.4844C141.219 20.849 141.37 21.0312 141.672 21.0312C141.984 21.0312 142.854 20.4479 144.281 19.2812C148.198 16.0938 153.688 10.4688 160.75 2.40625C161.031 2.08333 161.297 1.93229 161.547 1.95312H161.688C161.729 1.95312 161.844 1.9375 162.031 1.90625C162.229 1.86458 162.547 1.84375 162.984 1.84375C164.026 1.84375 164.547 2.03646 164.547 2.42188C164.547 2.58854 164.391 2.88021 164.078 3.29688C163.776 3.71354 163.141 4.60938 162.172 5.98438C161.203 7.35938 159.995 9.10417 158.547 11.2188C157.109 13.3333 155.865 15.276 154.812 17.0469C153.771 18.8177 153.25 19.9427 153.25 20.4219C153.25 20.4323 153.266 20.4375 153.297 20.4375C153.339 20.4375 153.505 20.3646 153.797 20.2188C154.693 19.75 155.74 19.0052 156.938 17.9844C158.146 16.9635 158.906 16.2708 159.219 15.9062C159.542 15.5417 159.734 15.3594 159.797 15.3594ZM167.859 8.71875C167.859 9.39583 169.042 9.73438 171.406 9.73438C171.99 9.73438 172.422 9.67188 172.703 9.54688C173.443 9.19271 174.349 9.01562 175.422 9.01562C176.505 9.01562 177.047 9.29167 177.047 9.84375C177.047 10.0625 176.953 10.3854 176.766 10.8125C176.589 11.2292 176.453 11.4844 176.359 11.5781C176.276 11.6719 175.943 11.8021 175.359 11.9688C174.776 12.125 174.396 12.2135 174.219 12.2344C174.052 12.2448 173.938 12.2552 173.875 12.2656C173.823 12.276 173.755 12.2865 173.672 12.2969C173.599 12.3073 173.427 12.3385 173.156 12.3906C172.885 12.4323 172.688 12.4271 172.562 12.375C169.115 14.0729 166.745 15.9375 165.453 17.9688C164.87 18.8854 164.578 19.6719 164.578 20.3281C164.578 21.3594 165.292 21.875 166.719 21.875C167.833 21.875 169.25 21.4375 170.969 20.5625C172.688 19.6875 174.208 18.6302 175.531 17.3906C176.865 16.1406 177.531 15.0573 177.531 14.1406C177.531 13.849 177.75 13.7031 178.188 13.7031C179.198 13.7031 179.703 14.3021 179.703 15.5C179.703 16.0625 179.458 16.7344 178.969 17.5156C178.479 18.2865 177.797 19.0729 176.922 19.875C176.047 20.6667 175.073 21.4062 174 22.0938C172.927 22.7812 171.734 23.3438 170.422 23.7812C169.12 24.2188 168.016 24.4375 167.109 24.4375C166.203 24.4375 165.469 24.349 164.906 24.1719C164.354 24.0052 163.833 23.75 163.344 23.4062C162.281 22.6667 161.75 21.5469 161.75 20.0469C161.75 19.2344 161.969 18.4115 162.406 17.5781C162.844 16.7344 163.417 15.9688 164.125 15.2812C165.427 13.9896 166.823 12.9167 168.312 12.0625C166.167 11.5729 165.094 10.4688 165.094 8.75C165.094 6.8125 166.583 5.04167 169.562 3.4375C171.219 2.55208 173.016 1.91667 174.953 1.53125C175.87 1.34375 176.635 1.25 177.25 1.25C178.5 1.25 179.443 1.34896 180.078 1.54688C180.464 1.73438 180.776 2 181.016 2.34375C181.255 2.67708 181.375 2.96875 181.375 3.21875C181.375 3.45833 181.344 3.67708 181.281 3.875C181.219 4.07292 181.115 4.22917 180.969 4.34375C180.76 4.5 180.526 4.61979 180.266 4.70312C180.005 4.78646 179.854 4.83854 179.812 4.85938C179 5.20312 178.302 5.375 177.719 5.375C176.677 5.375 176.109 5.23958 176.016 4.96875C176.036 4.69792 176.151 4.38542 176.359 4.03125C175.37 4.07292 174.344 4.27604 173.281 4.64062C172.219 4.99479 171.297 5.41667 170.516 5.90625C169.745 6.38542 169.109 6.88542 168.609 7.40625C168.109 7.92708 167.859 8.36458 167.859 8.71875ZM186.422 19.0312L186.344 19.3594C186.344 19.4219 186.37 19.4792 186.422 19.5312C186.484 19.5833 186.557 19.6094 186.641 19.6094C186.724 19.6094 186.792 19.5677 186.844 19.4844C188.396 17.4219 189.682 15.6094 190.703 14.0469C191.724 12.474 192.469 11.3177 192.938 10.5781C193.417 9.83854 193.797 9.25 194.078 8.8125C194.828 7.66667 195.573 6.64062 196.312 5.73438C193.5 6.44271 191.297 6.79688 189.703 6.79688C188.109 6.79688 186.964 6.69792 186.266 6.5C185.568 6.29167 185.109 6.0625 184.891 5.8125C184.672 5.55208 184.562 5.29167 184.562 5.03125C184.562 4.76042 184.573 4.5 184.594 4.25C184.635 3.72917 184.948 3.30208 185.531 2.96875C186.125 2.63542 186.615 2.46875 187 2.46875C187.385 2.46875 187.578 2.52604 187.578 2.64062C187.578 2.75521 187.49 2.91146 187.312 3.10938C187.146 3.29688 187.062 3.42708 187.062 3.5C187.062 3.83333 188.266 4 190.672 4C193.078 4 195.844 3.68229 198.969 3.04688C200.76 1.58854 202.307 0.859375 203.609 0.859375C204.474 0.859375 205.047 1.10417 205.328 1.59375C205.516 1.88542 205.609 2.17708 205.609 2.46875C205.609 2.76042 205.438 3.05208 205.094 3.34375C204.76 3.63542 204.307 3.88542 203.734 4.09375C202.693 4.46875 201.464 4.76562 200.047 4.98438C199.453 5.74479 198.609 6.92708 197.516 8.53125C196.432 10.1354 195.693 11.2188 195.297 11.7812C194.901 12.3438 194.26 13.3438 193.375 14.7812C192.5 16.2188 191.74 17.4635 191.094 18.5156C190.448 19.5573 189.76 20.5885 189.031 21.6094C187.542 23.7135 186.214 24.7656 185.047 24.7656C184.557 24.7656 184.135 24.6354 183.781 24.375C183.427 24.1146 183.25 23.6927 183.25 23.1094C183.25 22.5156 183.573 21.7812 184.219 20.9062C184.875 20.0208 185.354 19.4531 185.656 19.2031C185.958 18.9531 186.161 18.8281 186.266 18.8281C186.37 18.8281 186.422 18.8958 186.422 19.0312Z" fill="url(#paint0_linear_0_1)"/>
    <line x1="3" y1="34.5" x2="47" y2="34.5" stroke="#524C4C"/>
    <path d="M57.233 41V30.8182H60.6733C61.4688 30.8182 62.1217 30.9541 62.6321 31.2259C63.1425 31.4943 63.5204 31.8639 63.7656 32.3345C64.0109 32.8052 64.1335 33.3404 64.1335 33.9403C64.1335 34.5402 64.0109 35.0722 63.7656 35.5362C63.5204 36.0002 63.1442 36.3648 62.6371 36.63C62.13 36.8918 61.482 37.0227 60.6932 37.0227H57.9091V35.9091H60.6534C61.197 35.9091 61.6345 35.8295 61.9659 35.6705C62.3007 35.5114 62.5426 35.286 62.6918 34.9943C62.8442 34.6993 62.9205 34.348 62.9205 33.9403C62.9205 33.5327 62.8442 33.1764 62.6918 32.8714C62.5393 32.5665 62.2957 32.3312 61.9609 32.1655C61.6262 31.9964 61.1837 31.9119 60.6335 31.9119H58.4659V41H57.233ZM62.0256 36.4261L64.5312 41H63.0994L60.6335 36.4261H62.0256ZM66.188 41V30.8182H72.3329V31.9119H67.421V35.3523H72.0147V36.446H67.421V39.9062H72.4125V41H66.188ZM80.1234 33.3636C80.0637 32.8598 79.8218 32.4688 79.3975 32.1903C78.9733 31.9119 78.4529 31.7727 77.8365 31.7727C77.3857 31.7727 76.9913 31.8456 76.6532 31.9915C76.3185 32.1373 76.0566 32.3378 75.8677 32.593C75.6821 32.8482 75.5893 33.1383 75.5893 33.4631C75.5893 33.7348 75.6539 33.9685 75.7832 34.1641C75.9158 34.3563 76.0848 34.517 76.2903 34.6463C76.4958 34.7723 76.7112 34.8767 76.9366 34.9595C77.162 35.0391 77.3691 35.1037 77.5581 35.1534L78.5922 35.4318C78.8573 35.5014 79.1523 35.5975 79.4771 35.7202C79.8052 35.8428 80.1184 36.0102 80.4167 36.2223C80.7183 36.4311 80.9669 36.6996 81.1625 37.0277C81.358 37.3558 81.4558 37.7585 81.4558 38.2358C81.4558 38.786 81.3116 39.2831 81.0233 39.7273C80.7382 40.1714 80.3206 40.5244 79.7704 40.7862C79.2235 41.0481 78.559 41.179 77.7768 41.179C77.0476 41.179 76.4163 41.0613 75.8826 40.826C75.3523 40.5907 74.9347 40.2625 74.6298 39.8416C74.3282 39.4207 74.1575 38.9318 74.1177 38.375H75.3904C75.4236 38.7595 75.5529 39.0777 75.7782 39.3295C76.0069 39.5781 76.2953 39.7637 76.6433 39.8864C76.9946 40.0057 77.3725 40.0653 77.7768 40.0653C78.2475 40.0653 78.67 39.9891 79.0446 39.8366C79.4191 39.6809 79.7157 39.4654 79.9345 39.1903C80.1532 38.9119 80.2626 38.5871 80.2626 38.2159C80.2626 37.8778 80.1681 37.6027 79.9792 37.3906C79.7903 37.1785 79.5417 37.0062 79.2335 36.8736C78.9252 36.741 78.5922 36.625 78.2342 36.5256L76.9814 36.1676C76.1859 35.9389 75.5562 35.6125 75.0922 35.1882C74.6281 34.764 74.3961 34.2088 74.3961 33.5227C74.3961 32.9527 74.5502 32.4555 74.8585 32.0312C75.17 31.6037 75.5877 31.2723 76.1113 31.0369C76.6383 30.7983 77.2266 30.679 77.8762 30.679C78.5325 30.679 79.1158 30.7966 79.6262 31.032C80.1367 31.264 80.541 31.5821 80.8393 31.9865C81.1409 32.3909 81.3 32.8499 81.3166 33.3636H80.1234ZM82.9261 31.9119V30.8182H90.5625V31.9119H87.3608V41H86.1278V31.9119H82.9261ZM91.6935 41H90.4009L94.1396 30.8182H95.4123L99.1509 41H97.8583L94.8157 32.429H94.7362L91.6935 41ZM92.1708 37.0227H97.381V38.1165H92.1708V37.0227ZM107.419 30.8182H108.652V37.5597C108.652 38.2557 108.488 38.8771 108.159 39.424C107.835 39.9676 107.376 40.3968 106.782 40.7116C106.189 41.0232 105.493 41.179 104.694 41.179C103.895 41.179 103.199 41.0232 102.606 40.7116C102.013 40.3968 101.552 39.9676 101.224 39.424C100.899 38.8771 100.737 38.2557 100.737 37.5597V30.8182H101.97V37.4602C101.97 37.9574 102.079 38.3999 102.298 38.7876C102.517 39.1721 102.828 39.4754 103.233 39.6974C103.64 39.9162 104.127 40.0256 104.694 40.0256C105.261 40.0256 105.748 39.9162 106.156 39.6974C106.564 39.4754 106.875 39.1721 107.091 38.7876C107.309 38.3999 107.419 37.9574 107.419 37.4602V30.8182ZM111.114 41V30.8182H114.554C115.35 30.8182 116.003 30.9541 116.513 31.2259C117.023 31.4943 117.401 31.8639 117.646 32.3345C117.892 32.8052 118.014 33.3404 118.014 33.9403C118.014 34.5402 117.892 35.0722 117.646 35.5362C117.401 36.0002 117.025 36.3648 116.518 36.63C116.011 36.8918 115.363 37.0227 114.574 37.0227H111.79V35.9091H114.534C115.078 35.9091 115.515 35.8295 115.847 35.6705C116.182 35.5114 116.423 35.286 116.573 34.9943C116.725 34.6993 116.801 34.348 116.801 33.9403C116.801 33.5327 116.725 33.1764 116.573 32.8714C116.42 32.5665 116.177 32.3312 115.842 32.1655C115.507 31.9964 115.065 31.9119 114.514 31.9119H112.347V41H111.114ZM115.906 36.4261L118.412 41H116.98L114.514 36.4261H115.906ZM120.487 41H119.194L122.933 30.8182H124.205L127.944 41H126.651L123.609 32.429H123.529L120.487 41ZM120.964 37.0227H126.174V38.1165H120.964V37.0227ZM137.604 30.8182V41H136.411L130.862 33.0057H130.763V41H129.53V30.8182H130.723L136.291 38.8324H136.391V30.8182H137.604ZM139.514 31.9119V30.8182H147.15V31.9119H143.949V41H142.716V31.9119H139.514Z" fill="#51514E"/>
    <line x1="155" y1="34.5" x2="189" y2="34.5" stroke="#5B5757"/>
    <defs>
        <linearGradient id="paint0_linear_0_1" x1="3" y1="13" x2="234" y2="13" gradientUnits="userSpaceOnUse">
            <stop stop-color="#C70505"/>
            <stop offset="1" stop-color="#2D2805"/>
        </linearGradient>
    </defs>
</svg>
