<svg width="154" height="35" viewBox="0 0 154 35" fill="none" xmlns="http://www.w3.org/2000/svg">
    <path d="M8.50391 16.5352C7.05078 17.832 5.31641 18.4805 3.30078 18.4805C2.08203 18.4805 1.21094 18.2227 0.6875 17.707C0.390625 17.4258 0.242188 16.9297 0.242188 16.2188C0.242188 15.125 1.07422 14.418 2.73828 14.0977C3.26172 13.9961 3.89062 13.9453 4.625 13.9453C5.35938 13.9453 6.36328 14.082 7.63672 14.3555C8.31641 13.5977 9.125 12.4844 10.0625 11.0156C11.0078 9.53906 11.7539 8.40234 12.3008 7.60547C12.8477 6.80859 13.4688 5.99609 14.1641 5.16797C14.8594 4.33203 15.5859 3.57812 16.3438 2.90625C17.8828 1.53125 19.4062 0.84375 20.9141 0.84375C21.5859 0.84375 22.0703 1.01562 22.3672 1.35938C22.6641 1.69531 22.8125 2.09766 22.8125 2.56641C22.8125 3.02734 22.5977 3.56641 22.168 4.18359C21.7461 4.80078 21.2539 5.34766 20.6914 5.82422C20.1367 6.30078 19.5859 6.70703 19.0391 7.04297C18.5 7.37109 18.0742 7.53516 17.7617 7.53516C17.4492 7.53516 17.1797 7.40234 16.9531 7.13672C16.7266 6.87109 16.6133 6.61719 16.6133 6.375C16.6133 6.125 16.6445 5.95312 16.707 5.85938C16.7773 5.75781 16.8477 5.70703 16.918 5.70703C16.9883 5.70703 17.0312 5.75 17.0469 5.83594C17.2969 5.75781 17.6953 5.51562 18.2422 5.10938C18.7969 4.69531 19.3008 4.26562 19.7539 3.82031C20.207 3.375 20.4336 3.09766 20.4336 2.98828C20.4336 2.87109 20.3633 2.8125 20.2227 2.8125C20.0898 2.8125 19.9062 2.85938 19.6719 2.95312C19.4375 3.04688 19.125 3.24219 18.7344 3.53906C18.3438 3.82812 17.9219 4.20312 17.4688 4.66406C16.375 5.75781 15.1562 7.30859 13.8125 9.31641C13.5 9.76953 13.0586 10.4297 12.4883 11.2969C11.3242 13.0547 10.4922 14.2578 9.99219 14.9062C14 15.9609 16.8633 16.4883 18.582 16.4883C19.3789 16.4883 19.9375 16.3867 20.2578 16.1836C20.375 16.1133 20.4531 16.0781 20.4922 16.0781C20.5312 16.0781 20.5508 16.1094 20.5508 16.1719C20.5508 16.2344 20.5156 16.3281 20.4453 16.4531C20.375 16.5781 20.1992 16.8438 19.918 17.25C19.6445 17.6562 19.4414 17.8984 19.3086 17.9766C18.9258 18.2031 18.2734 18.3164 17.3516 18.3164C16.4375 18.3164 15.5625 18.25 14.7266 18.1172C13.8984 17.9844 13.2305 17.8555 12.7227 17.7305C12.2148 17.5977 11.4609 17.3867 10.4609 17.0977C9.46875 16.8086 8.81641 16.6211 8.50391 16.5352ZM4.22656 15.8203C3.20312 15.8203 2.69141 15.9414 2.69141 16.1836C2.69141 16.2773 2.77734 16.3594 2.94922 16.4297C3.12891 16.5 3.33984 16.5352 3.58203 16.5352C4.33984 16.5352 5.07031 16.3359 5.77344 15.9375C5.17188 15.8594 4.65625 15.8203 4.22656 15.8203ZM26.0586 6.53906C26.0586 7.04688 26.9453 7.30078 28.7188 7.30078C29.1562 7.30078 29.4805 7.25391 29.6914 7.16016C30.2461 6.89453 30.9258 6.76172 31.7305 6.76172C32.543 6.76172 32.9492 6.96875 32.9492 7.38281C32.9492 7.54688 32.8789 7.78906 32.7383 8.10938C32.6055 8.42188 32.5039 8.61328 32.4336 8.68359C32.3711 8.75391 32.1211 8.85156 31.6836 8.97656C31.2461 9.09375 30.9609 9.16016 30.8281 9.17578C30.7031 9.18359 30.6172 9.19141 30.5703 9.19922C30.5312 9.20703 30.4805 9.21484 30.418 9.22266C30.3633 9.23047 30.2344 9.25391 30.0312 9.29297C29.8281 9.32422 29.6797 9.32031 29.5859 9.28125C27 10.5547 25.2227 11.9531 24.2539 13.4766C23.8164 14.1641 23.5977 14.7539 23.5977 15.2461C23.5977 16.0195 24.1328 16.4062 25.2031 16.4062C26.0391 16.4062 27.1016 16.0781 28.3906 15.4219C29.6797 14.7656 30.8203 13.9727 31.8125 13.043C32.8125 12.1055 33.3125 11.293 33.3125 10.6055C33.3125 10.3867 33.4766 10.2773 33.8047 10.2773C34.5625 10.2773 34.9414 10.7266 34.9414 11.625C34.9414 12.0469 34.7578 12.5508 34.3906 13.1367C34.0234 13.7148 33.5117 14.3047 32.8555 14.9062C32.1992 15.5 31.4688 16.0547 30.6641 16.5703C29.8594 17.0859 28.9648 17.5078 27.9805 17.8359C27.0039 18.1641 26.1758 18.3281 25.4961 18.3281C24.8164 18.3281 24.2656 18.2617 23.8438 18.1289C23.4297 18.0039 23.0391 17.8125 22.6719 17.5547C21.875 17 21.4766 16.1602 21.4766 15.0352C21.4766 14.4258 21.6406 13.8086 21.9688 13.1836C22.2969 12.5508 22.7266 11.9766 23.2578 11.4609C24.2344 10.4922 25.2812 9.6875 26.3984 9.04688C24.7891 8.67969 23.9844 7.85156 23.9844 6.5625C23.9844 5.10938 25.1016 3.78125 27.3359 2.57812C28.5781 1.91406 29.9258 1.4375 31.3789 1.14844C32.0664 1.00781 32.6406 0.9375 33.1016 0.9375C34.0391 0.9375 34.7461 1.01172 35.2227 1.16016C35.5117 1.30078 35.7461 1.5 35.9258 1.75781C36.1055 2.00781 36.1953 2.22656 36.1953 2.41406C36.1953 2.59375 36.1719 2.75781 36.125 2.90625C36.0781 3.05469 36 3.17188 35.8906 3.25781C35.7344 3.375 35.5586 3.46484 35.3633 3.52734C35.168 3.58984 35.0547 3.62891 35.0234 3.64453C34.4141 3.90234 33.8906 4.03125 33.4531 4.03125C32.6719 4.03125 32.2461 3.92969 32.1758 3.72656C32.1914 3.52344 32.2773 3.28906 32.4336 3.02344C31.6914 3.05469 30.9219 3.20703 30.125 3.48047C29.3281 3.74609 28.6367 4.0625 28.0508 4.42969C27.4727 4.78906 26.9961 5.16406 26.6211 5.55469C26.2461 5.94531 26.0586 6.27344 26.0586 6.53906ZM45.3359 6L45.6758 5.91797C45.7227 5.91797 45.7461 5.96484 45.7461 6.05859C45.7461 6.14453 45.6094 6.28906 45.3359 6.49219C45.0703 6.69531 44.7461 6.79688 44.3633 6.79688C43.9883 6.79688 43.6914 6.6875 43.4727 6.46875C43.2617 6.25 43.1562 5.96484 43.1562 5.61328C43.1562 4.87109 43.6406 4.13672 44.6094 3.41016C45.5781 2.67578 46.7695 2.08984 48.1836 1.65234C49.5977 1.20703 50.9531 0.984375 52.25 0.984375C54.1484 0.984375 55.5586 1.29297 56.4805 1.91016C57.4102 2.52734 57.875 3.35547 57.875 4.39453C57.875 5.72266 56.9531 7.00781 55.1094 8.25C54.1406 8.90625 53.0938 9.42969 51.9688 9.82031C53.2031 9.95312 54.1875 10.3516 54.9219 11.0156C55.4766 11.5156 55.7539 12.1523 55.7539 12.9258C55.7539 13.6992 55.3828 14.4883 54.6406 15.293C53.9062 16.0898 52.9258 16.7539 51.6992 17.2852C50.4727 17.8086 49.2188 18.0703 47.9375 18.0703C46.4609 18.0703 45.375 17.7461 44.6797 17.0977C44.3672 16.8008 44.2109 16.5391 44.2109 16.3125C44.2109 16.0781 44.2695 15.832 44.3867 15.5742C43.8164 16.6055 43.3984 17.3828 43.1328 17.9062C43.0156 18.1406 42.7773 18.2578 42.418 18.2578C42.0664 18.2578 41.793 18.1641 41.5977 17.9766C41.4023 17.7891 41.3047 17.5781 41.3047 17.3438C41.3047 17.1094 41.3398 16.9023 41.4102 16.7227C41.7617 15.8008 43 13.6445 45.125 10.2539C47.2578 6.85547 48.5625 4.88672 49.0391 4.34766C49.2891 4.04297 49.8555 3.89062 50.7383 3.89062C51.0898 3.89062 51.2656 3.96875 51.2656 4.125C51.2656 4.24219 50.7461 5.12109 49.707 6.76172C48.668 8.40234 48.125 9.26172 48.0781 9.33984C49.1641 9.02734 50.2734 8.60156 51.4062 8.0625C52.5469 7.51562 53.5391 6.89844 54.3828 6.21094C55.2344 5.52344 55.6602 4.90234 55.6602 4.34766C55.6602 3.43359 54.668 2.97656 52.6836 2.97656C50.6055 2.97656 48.6055 3.52734 46.6836 4.62891C46.207 4.90234 45.8438 5.15234 45.5938 5.37891C45.3438 5.60547 45.2188 5.76562 45.2188 5.85938C45.2188 5.95312 45.2578 6 45.3359 6ZM47.4453 11.6016C47.3047 11.6016 47.1484 11.4375 46.9766 11.1094C46.2344 12.2969 45.457 13.6172 44.6445 15.0703C45.0117 14.5625 45.5469 14.3086 46.25 14.3086C46.7188 14.3086 46.9531 14.3672 46.9531 14.4844C46.9531 14.5312 46.9023 14.5742 46.8008 14.6133C46.4883 14.7305 46.332 14.9062 46.332 15.1406C46.332 15.7031 46.9297 15.9844 48.125 15.9844C49.7422 15.9844 51.207 15.4219 52.5195 14.2969C53.2227 13.7031 53.5742 13.1836 53.5742 12.7383C53.5742 12.4648 53.2891 12.1641 52.7188 11.8359C52.0547 11.4688 51.043 11.2852 49.6836 11.2852C48.7383 11.2852 48.1328 11.3398 47.8672 11.4492C47.6016 11.5508 47.4609 11.6016 47.4453 11.6016ZM71.5039 1.55859C71.7461 1.01953 71.918 0.75 72.0195 0.75H72.0781C72.1953 0.75 72.4336 0.875 72.793 1.125C73.1523 1.375 73.332 1.60938 73.332 1.82812C73.332 2.13281 72.332 4.49219 70.332 8.90625C68.332 13.3203 67.1836 15.7969 66.8867 16.3359C66.5977 16.8672 66.3984 17.2227 66.2891 17.4023C66.1797 17.582 66.0312 17.7812 65.8438 18C65.5078 18.4141 65.0898 18.6211 64.5898 18.6211C64.3867 18.6211 64.207 18.6445 64.0508 18.6914C63.8945 18.7461 63.8008 18.7734 63.7695 18.7734C63.5195 18.7734 63.3945 18.7148 63.3945 18.5977C63.3945 18.5742 63.4258 18.4766 63.4883 18.3047C63.5586 18.1406 64.4531 16.2461 66.1719 12.6211C64.3359 12.5508 62.7227 12.4961 61.332 12.457C59.9961 14.1367 58.7852 15.8945 57.6992 17.7305C57.5664 17.9883 57.4414 18.168 57.3242 18.2695C57.207 18.3789 57.0469 18.4336 56.8438 18.4336C56.6406 18.4336 56.4219 18.3281 56.1875 18.1172C55.9531 17.9141 55.8359 17.6758 55.8359 17.4023C55.8359 16.6211 56.8438 14.9492 58.8594 12.3867C57.9141 12.3867 57.3125 12.4102 57.0547 12.457C56.8047 12.5039 56.6445 12.5273 56.5742 12.5273C56.3633 12.5273 56.2578 12.3516 56.2578 12C56.2578 11.6406 56.4648 11.3281 56.8789 11.0625C57.3008 10.7891 57.8633 10.6523 58.5664 10.6523C58.6211 10.6523 58.7188 10.6484 58.8594 10.6406C59.3438 10.6172 59.8398 10.5977 60.3477 10.582C62.0508 8.58203 63.832 6.72656 65.6914 5.01562C67.5508 3.30469 69.1602 2.10547 70.5195 1.41797C70.7383 1.30859 70.9102 1.25781 71.0352 1.26562C71.168 1.26562 71.3242 1.36328 71.5039 1.55859ZM70.6836 3.21094C67.832 5.375 65.2266 7.83203 62.8672 10.582C64.25 10.6133 65.6484 10.6719 67.0625 10.7578C68.4844 7.76562 69.6914 5.25 70.6836 3.21094ZM80.7031 1.34766L81.5586 1.16016C81.7773 1.16016 81.9531 1.20703 82.0859 1.30078C82.2188 1.39453 82.2852 1.48438 82.2852 1.57031C82.2852 1.64844 82.2656 1.76562 82.2266 1.92188C82.1875 2.07812 81.8711 3.60156 81.2773 6.49219C80.6836 9.38281 80.25 11.5391 79.9766 12.9609C81.3047 11.1562 82.8555 8.93359 84.6289 6.29297C86.4023 3.65234 87.4375 1.89844 87.7344 1.03125C87.8281 0.757813 87.9492 0.546875 88.0977 0.398438C88.2461 0.25 88.3789 0.164062 88.4961 0.140625C88.6133 0.109375 88.793 0.09375 89.0352 0.09375C89.2773 0.09375 89.5625 0.148438 89.8906 0.257812C90.2266 0.359375 90.3945 0.53125 90.3945 0.773438C90.3945 1.23438 89.7109 2.5625 88.3438 4.75781C86.9766 6.95312 85.4141 9.28516 83.6562 11.7539C81.9062 14.2227 80.4414 16.1758 79.2617 17.6133C79.0508 17.8711 78.793 18 78.4883 18C78.1914 18 77.875 17.9492 77.5391 17.8477C77.2109 17.7383 77.0469 17.5508 77.0469 17.2852C77.0469 16.4258 77.8008 12.2969 79.3086 4.89844C78.0195 6.57031 76.4531 8.89844 74.6094 11.8828C72.6875 14.9688 71.6016 16.8828 71.3516 17.625C71.2109 18.0703 71.0508 18.3281 70.8711 18.3984C70.7461 18.4531 70.6133 18.4805 70.4727 18.4805L69.5469 18.5859C69.3672 18.5859 69.2031 18.5352 69.0547 18.4336C68.8984 18.332 68.8203 18.2266 68.8203 18.1172C68.8203 17.8047 69.25 16.8711 70.1094 15.3164C70.9766 13.7617 71.9844 12.0742 73.1328 10.2539C74.2891 8.42578 75.4961 6.64844 76.7539 4.92188C78.0117 3.19531 78.9844 2.03516 79.6719 1.44141C79.8125 1.31641 79.9727 1.25391 80.1523 1.25391L80.7031 1.34766ZM100.52 1.24219C101.77 1.24219 102.711 1.55078 103.344 2.16797C103.977 2.77734 104.293 3.51562 104.293 4.38281C104.293 5.25 104.109 6.18359 103.742 7.18359C103.375 8.17578 102.855 9.19922 102.184 10.2539C101.512 11.3008 100.75 12.3125 99.8984 13.2891C99.0469 14.2656 98.0898 15.1562 97.0273 15.9609C95.9727 16.7656 94.9219 17.375 93.875 17.7891C93.9453 17.8438 94.0938 17.9648 94.3203 18.1523C94.5547 18.3398 94.7188 18.4688 94.8125 18.5391C94.9062 18.6172 95.0547 18.7383 95.2578 18.9023C95.4688 19.0664 95.625 19.1836 95.7266 19.2539C95.8359 19.3242 95.9805 19.4219 96.1602 19.5469C96.3398 19.6797 96.4844 19.7734 96.5938 19.8281C96.7109 19.8828 96.8398 19.9453 96.9805 20.0156C97.2305 20.1406 97.4648 20.2031 97.6836 20.2031C97.9102 20.2031 98.0977 20.1758 98.2461 20.1211C98.3945 20.0664 98.4922 20.0039 98.5391 19.9336C98.5938 19.8711 98.6406 19.8125 98.6797 19.7578C98.7188 19.7031 98.7578 19.6758 98.7969 19.6758C98.8984 19.6758 98.9492 19.7305 98.9492 19.8398C98.9492 19.9492 98.8945 20.0977 98.7852 20.2852C98.6758 20.4727 98.5156 20.668 98.3047 20.8711C98.1016 21.082 97.7578 21.2969 97.2734 21.5156C96.7891 21.7344 96.3672 21.8438 96.0078 21.8438C94.7031 21.8438 92.8477 20.4492 90.4414 17.6602C89.6992 18.0117 89.0195 18.1875 88.4023 18.1875C87.7852 18.1875 87.2266 17.9141 86.7266 17.3672C86.2266 16.8125 85.9766 16.1055 85.9766 15.2461C85.9766 14.3789 86.2812 13.3047 86.8906 12.0234C88.0156 9.61719 89.5273 7.53906 91.4258 5.78906C94.7305 2.75781 97.7617 1.24219 100.52 1.24219ZM102.184 4.17188C102.184 3.48438 101.809 3.14062 101.059 3.14062C99.6836 3.14062 98.2734 3.52734 96.8281 4.30078C95.3906 5.06641 94.0273 6.08203 92.7383 7.34766C91.4492 8.61328 90.3789 10.0039 89.5273 11.5195C88.6836 13.0273 88.2617 14.2227 88.2617 15.1055C88.2617 15.5117 88.3633 15.7969 88.5664 15.9609C89.0039 15.9609 89.7227 15.6992 90.7227 15.1758C91.7305 14.6445 92.6133 13.9453 93.3711 13.0781C93.4492 13 93.5078 12.9609 93.5469 12.9609C93.5938 12.9609 93.625 12.9766 93.6406 13.0078C93.6562 13.0312 93.6914 13.0859 93.7461 13.1719C93.8008 13.2578 93.8516 13.3438 93.8984 13.4297C94.0234 13.6719 94.0859 13.9414 94.0859 14.2383C94.0859 14.5273 93.9805 14.8359 93.7695 15.1641C93.5586 15.4922 93.1211 15.918 92.457 16.4414C93.3164 16.1367 94.4883 15.2461 95.9727 13.7695C97.457 12.293 98.6641 10.8984 99.5938 9.58594C100.523 8.26562 101.188 7.12891 101.586 6.17578C101.984 5.21484 102.184 4.54688 102.184 4.17188ZM119.598 11.5195C119.809 11.5195 119.914 11.7969 119.914 12.3516C119.914 12.9062 119.879 13.2773 119.809 13.4648C119.574 14.0664 119.027 14.7422 118.168 15.4922C117.316 16.2344 116.379 16.8672 115.355 17.3906C114.34 17.9062 113.504 18.1641 112.848 18.1641C112.535 18.1641 112.27 18.043 112.051 17.8008C111.84 17.5586 111.734 17.2422 111.734 16.8516C111.734 16.1562 112.133 15.0938 112.93 13.6641C113.727 12.2344 114.691 10.7422 115.824 9.1875C113.941 11.375 112.605 12.8516 111.816 13.6172C111.035 14.3828 110.336 15.0391 109.719 15.5859C109.102 16.125 108.547 16.5586 108.055 16.8867C106.883 17.6602 105.953 18.0469 105.266 18.0469C104.578 18.0469 104.09 17.8594 103.801 17.4844C103.512 17.1016 103.367 16.6797 103.367 16.2188C103.367 14.8672 104.156 12.9688 105.734 10.5234C107.32 8.07031 108.777 6.06641 110.105 4.51172C108.98 5.50391 108.203 6 107.773 6C107.352 6 107.035 5.87109 106.824 5.61328C106.613 5.34766 106.508 5.05078 106.508 4.72266C106.508 4.38672 106.664 4.07422 106.977 3.78516C107.289 3.48828 107.516 3.33984 107.656 3.33984C107.805 3.33984 107.879 3.35156 107.879 3.375C107.879 3.39844 107.82 3.48438 107.703 3.63281C107.586 3.77344 107.527 3.87109 107.527 3.92578C107.527 3.98047 107.578 4.00781 107.68 4.00781C107.984 4.00781 108.648 3.69922 109.672 3.08203C110.695 2.46484 111.57 1.86328 112.297 1.27734C112.492 1.11328 112.715 1.03125 112.965 1.03125C113.223 1.03125 113.469 1.09375 113.703 1.21875C113.719 1.17969 113.785 1.1875 113.902 1.24219C114.02 1.29688 114.137 1.38281 114.254 1.5C114.371 1.61719 114.43 1.72656 114.43 1.82812C114.43 1.92969 114.398 2.02344 114.336 2.10938C111.086 6.3125 109.043 9.05078 108.207 10.3242C106.512 12.9102 105.664 14.5898 105.664 15.3633C105.664 15.6367 105.777 15.7734 106.004 15.7734C106.238 15.7734 106.891 15.3359 107.961 14.4609C110.898 12.0703 115.016 7.85156 120.312 1.80469C120.523 1.5625 120.723 1.44922 120.91 1.46484H121.016C121.047 1.46484 121.133 1.45312 121.273 1.42969C121.422 1.39844 121.66 1.38281 121.988 1.38281C122.77 1.38281 123.16 1.52734 123.16 1.81641C123.16 1.94141 123.043 2.16016 122.809 2.47266C122.582 2.78516 122.105 3.45703 121.379 4.48828C120.652 5.51953 119.746 6.82812 118.66 8.41406C117.582 10 116.648 11.457 115.859 12.7852C115.078 14.1133 114.688 14.957 114.688 15.3164C114.688 15.3242 114.699 15.3281 114.723 15.3281C114.754 15.3281 114.879 15.2734 115.098 15.1641C115.77 14.8125 116.555 14.2539 117.453 13.4883C118.359 12.7227 118.93 12.2031 119.164 11.9297C119.406 11.6562 119.551 11.5195 119.598 11.5195ZM125.645 6.53906C125.645 7.04688 126.531 7.30078 128.305 7.30078C128.742 7.30078 129.066 7.25391 129.277 7.16016C129.832 6.89453 130.512 6.76172 131.316 6.76172C132.129 6.76172 132.535 6.96875 132.535 7.38281C132.535 7.54688 132.465 7.78906 132.324 8.10938C132.191 8.42188 132.09 8.61328 132.02 8.68359C131.957 8.75391 131.707 8.85156 131.27 8.97656C130.832 9.09375 130.547 9.16016 130.414 9.17578C130.289 9.18359 130.203 9.19141 130.156 9.19922C130.117 9.20703 130.066 9.21484 130.004 9.22266C129.949 9.23047 129.82 9.25391 129.617 9.29297C129.414 9.32422 129.266 9.32031 129.172 9.28125C126.586 10.5547 124.809 11.9531 123.84 13.4766C123.402 14.1641 123.184 14.7539 123.184 15.2461C123.184 16.0195 123.719 16.4062 124.789 16.4062C125.625 16.4062 126.688 16.0781 127.977 15.4219C129.266 14.7656 130.406 13.9727 131.398 13.043C132.398 12.1055 132.898 11.293 132.898 10.6055C132.898 10.3867 133.062 10.2773 133.391 10.2773C134.148 10.2773 134.527 10.7266 134.527 11.625C134.527 12.0469 134.344 12.5508 133.977 13.1367C133.609 13.7148 133.098 14.3047 132.441 14.9062C131.785 15.5 131.055 16.0547 130.25 16.5703C129.445 17.0859 128.551 17.5078 127.566 17.8359C126.59 18.1641 125.762 18.3281 125.082 18.3281C124.402 18.3281 123.852 18.2617 123.43 18.1289C123.016 18.0039 122.625 17.8125 122.258 17.5547C121.461 17 121.062 16.1602 121.062 15.0352C121.062 14.4258 121.227 13.8086 121.555 13.1836C121.883 12.5508 122.312 11.9766 122.844 11.4609C123.82 10.4922 124.867 9.6875 125.984 9.04688C124.375 8.67969 123.57 7.85156 123.57 6.5625C123.57 5.10938 124.688 3.78125 126.922 2.57812C128.164 1.91406 129.512 1.4375 130.965 1.14844C131.652 1.00781 132.227 0.9375 132.688 0.9375C133.625 0.9375 134.332 1.01172 134.809 1.16016C135.098 1.30078 135.332 1.5 135.512 1.75781C135.691 2.00781 135.781 2.22656 135.781 2.41406C135.781 2.59375 135.758 2.75781 135.711 2.90625C135.664 3.05469 135.586 3.17188 135.477 3.25781C135.32 3.375 135.145 3.46484 134.949 3.52734C134.754 3.58984 134.641 3.62891 134.609 3.64453C134 3.90234 133.477 4.03125 133.039 4.03125C132.258 4.03125 131.832 3.92969 131.762 3.72656C131.777 3.52344 131.863 3.28906 132.02 3.02344C131.277 3.05469 130.508 3.20703 129.711 3.48047C128.914 3.74609 128.223 4.0625 127.637 4.42969C127.059 4.78906 126.582 5.16406 126.207 5.55469C125.832 5.94531 125.645 6.27344 125.645 6.53906ZM139.566 14.2734L139.508 14.5195C139.508 14.5664 139.527 14.6094 139.566 14.6484C139.613 14.6875 139.668 14.707 139.73 14.707C139.793 14.707 139.844 14.6758 139.883 14.6133C141.047 13.0664 142.012 11.707 142.777 10.5352C143.543 9.35547 144.102 8.48828 144.453 7.93359C144.812 7.37891 145.098 6.9375 145.309 6.60938C145.871 5.75 146.43 4.98047 146.984 4.30078C144.875 4.83203 143.223 5.09766 142.027 5.09766C140.832 5.09766 139.973 5.02344 139.449 4.875C138.926 4.71875 138.582 4.54688 138.418 4.35938C138.254 4.16406 138.172 3.96875 138.172 3.77344C138.172 3.57031 138.18 3.375 138.195 3.1875C138.227 2.79688 138.461 2.47656 138.898 2.22656C139.344 1.97656 139.711 1.85156 140 1.85156C140.289 1.85156 140.434 1.89453 140.434 1.98047C140.434 2.06641 140.367 2.18359 140.234 2.33203C140.109 2.47266 140.047 2.57031 140.047 2.625C140.047 2.875 140.949 3 142.754 3C144.559 3 146.633 2.76172 148.977 2.28516C150.32 1.19141 151.48 0.644531 152.457 0.644531C153.105 0.644531 153.535 0.828125 153.746 1.19531C153.887 1.41406 153.957 1.63281 153.957 1.85156C153.957 2.07031 153.828 2.28906 153.57 2.50781C153.32 2.72656 152.98 2.91406 152.551 3.07031C151.77 3.35156 150.848 3.57422 149.785 3.73828C149.34 4.30859 148.707 5.19531 147.887 6.39844C147.074 7.60156 146.52 8.41406 146.223 8.83594C145.926 9.25781 145.445 10.0078 144.781 11.0859C144.125 12.1641 143.555 13.0977 143.07 13.8867C142.586 14.668 142.07 15.4414 141.523 16.207C140.406 17.7852 139.41 18.5742 138.535 18.5742C138.168 18.5742 137.852 18.4766 137.586 18.2812C137.32 18.0859 137.188 17.7695 137.188 17.332C137.188 16.8867 137.43 16.3359 137.914 15.6797C138.406 15.0156 138.766 14.5898 138.992 14.4023C139.219 14.2148 139.371 14.1211 139.449 14.1211C139.527 14.1211 139.566 14.1719 139.566 14.2734Z" fill="url(#paint0_linear_0_1)"/>
    <line x1="2" y1="28.5" x2="33" y2="28.5" stroke="#524C4C"/>
    <path d="M40.9688 34V26H43.6719C44.2969 26 44.8099 26.1068 45.2109 26.3203C45.612 26.5312 45.9089 26.8216 46.1016 27.1914C46.2943 27.5612 46.3906 27.9818 46.3906 28.4531C46.3906 28.9245 46.2943 29.3424 46.1016 29.707C45.9089 30.0716 45.6133 30.3581 45.2148 30.5664C44.8164 30.7721 44.3073 30.875 43.6875 30.875H41.5V30H43.6563C44.0833 30 44.4271 29.9375 44.6875 29.8125C44.9505 29.6875 45.1406 29.5104 45.2578 29.2812C45.3776 29.0495 45.4375 28.7734 45.4375 28.4531C45.4375 28.1328 45.3776 27.8529 45.2578 27.6133C45.138 27.3737 44.9466 27.1888 44.6836 27.0586C44.4206 26.9258 44.0729 26.8594 43.6406 26.8594H41.9375V34H40.9688ZM44.7344 30.4062L46.7031 34H45.5781L43.6406 30.4062H44.7344ZM48.0049 34V26H52.833V26.8594H48.9736V29.5625H52.583V30.4219H48.9736V33.1406H52.8955V34H48.0049ZM58.9541 28C58.9072 27.6042 58.7171 27.2969 58.3838 27.0781C58.0505 26.8594 57.6416 26.75 57.1572 26.75C56.8031 26.75 56.4932 26.8073 56.2275 26.9219C55.9645 27.0365 55.7588 27.194 55.6104 27.3945C55.4645 27.5951 55.3916 27.8229 55.3916 28.0781C55.3916 28.2917 55.4424 28.4753 55.5439 28.6289C55.6481 28.7799 55.7809 28.9062 55.9424 29.0078C56.1038 29.1068 56.2731 29.1888 56.4502 29.2539C56.6273 29.3164 56.79 29.3672 56.9385 29.4062L57.751 29.625C57.9593 29.6797 58.1911 29.7552 58.4463 29.8516C58.7041 29.9479 58.9502 30.0794 59.1846 30.2461C59.4215 30.4102 59.6169 30.6211 59.7705 30.8789C59.9242 31.1367 60.001 31.4531 60.001 31.8281C60.001 32.2604 59.8877 32.651 59.6611 33C59.4372 33.349 59.109 33.6263 58.6768 33.832C58.2471 34.0378 57.7249 34.1406 57.1104 34.1406C56.5374 34.1406 56.0413 34.0482 55.6221 33.8633C55.2054 33.6784 54.8773 33.4206 54.6377 33.0898C54.4007 32.7591 54.2666 32.375 54.2354 31.9375H55.2354C55.2614 32.2396 55.363 32.4896 55.54 32.6875C55.7197 32.8828 55.9463 33.0286 56.2197 33.125C56.4958 33.2187 56.7926 33.2656 57.1104 33.2656C57.4801 33.2656 57.8122 33.2057 58.1064 33.0859C58.4007 32.9635 58.6338 32.7943 58.8057 32.5781C58.9775 32.3594 59.0635 32.1042 59.0635 31.8125C59.0635 31.5469 58.9893 31.3307 58.8408 31.1641C58.6924 30.9974 58.4971 30.862 58.2549 30.7578C58.0127 30.6536 57.751 30.5625 57.4697 30.4844L56.4854 30.2031C55.8604 30.0234 55.3656 29.7669 55.001 29.4336C54.6364 29.1003 54.4541 28.6641 54.4541 28.125C54.4541 27.6771 54.5752 27.2865 54.8174 26.9531C55.0622 26.6172 55.3903 26.3568 55.8018 26.1719C56.2158 25.9844 56.6781 25.8906 57.1885 25.8906C57.7041 25.8906 58.1624 25.9831 58.5635 26.168C58.9645 26.3503 59.2822 26.6003 59.5166 26.918C59.7536 27.2357 59.8786 27.5964 59.8916 28H58.9541ZM61.1563 26.8594V26H67.1562V26.8594H64.6406V34H63.6719V26.8594H61.1563ZM68.0449 34H67.0293L69.9668 26H70.9668L73.9043 34H72.8887L70.498 27.2656H70.4355L68.0449 34ZM68.4199 30.875H72.5137V31.7344H68.4199V30.875ZM80.4004 26H81.3691V31.2969C81.3691 31.8437 81.2402 32.332 80.9824 32.7617C80.7272 33.1888 80.3665 33.526 79.9004 33.7734C79.4342 34.0182 78.8874 34.1406 78.2598 34.1406C77.6322 34.1406 77.0853 34.0182 76.6191 33.7734C76.153 33.526 75.791 33.1888 75.5332 32.7617C75.278 32.332 75.1504 31.8437 75.1504 31.2969V26H76.1191V31.2188C76.1191 31.6094 76.2051 31.957 76.377 32.2617C76.5488 32.5638 76.7936 32.8021 77.1113 32.9766C77.4316 33.1484 77.8145 33.2344 78.2598 33.2344C78.7051 33.2344 79.0879 33.1484 79.4082 32.9766C79.7285 32.8021 79.9733 32.5638 80.1426 32.2617C80.3145 31.957 80.4004 31.6094 80.4004 31.2188V26ZM83.3037 34V26H86.0068C86.6318 26 87.1449 26.1068 87.5459 26.3203C87.9469 26.5312 88.2438 26.8216 88.4365 27.1914C88.6292 27.5612 88.7256 27.9818 88.7256 28.4531C88.7256 28.9245 88.6292 29.3424 88.4365 29.707C88.2438 30.0716 87.9482 30.3581 87.5498 30.5664C87.1514 30.7721 86.6423 30.875 86.0225 30.875H83.835V30H85.9912C86.4183 30 86.762 29.9375 87.0225 29.8125C87.2855 29.6875 87.4756 29.5104 87.5928 29.2812C87.7126 29.0495 87.7725 28.7734 87.7725 28.4531C87.7725 28.1328 87.7126 27.8529 87.5928 27.6133C87.473 27.3737 87.2816 27.1888 87.0186 27.0586C86.7555 26.9258 86.4079 26.8594 85.9756 26.8594H84.2725V34H83.3037ZM87.0693 30.4062L89.0381 34H87.9131L85.9756 30.4062H87.0693ZM90.668 34H89.6523L92.5898 26H93.5898L96.5273 34H95.5117L93.1211 27.2656H93.0586L90.668 34ZM91.043 30.875H95.1367V31.7344H91.043V30.875ZM104.117 26V34H103.18L98.8203 27.7187H98.7422V34H97.7734V26H98.7109L103.086 32.2969H103.164V26H104.117ZM105.618 26.8594V26H111.618V26.8594H109.103V34H108.134V26.8594H105.618Z" fill="#51514E"/>
    <line x1="115" y1="28.5" x2="140" y2="28.5" stroke="#5B5757"/>
    <defs>
        <linearGradient id="paint0_linear_0_1" x1="2" y1="9.5" x2="157" y2="9.5" gradientUnits="userSpaceOnUse">
            <stop stop-color="#C70505"/>
            <stop offset="1" stop-color="#2D2805"/>
        </linearGradient>
    </defs>
</svg>
