<svg width="197" height="42" viewBox="0 0 197 42" fill="none" xmlns="http://www.w3.org/2000/svg">
    <path d="M0.593125 0.987998H15.6411V41.668H0.593125V0.987998ZM13.3371 33.496V29.104L6.56913 23.848L13.3011 18.628V14.236L1.85313 23.164V24.748L13.3371 33.496ZM24.2609 14.704V10.6H14.9369V0.987998H49.9649V10.6H40.7489V14.704H43.2689L40.1729 26.224H39.9569L35.8169 14.704H37.4729V10.6H28.1489V14.704H29.9849L25.8089 26.008H25.5929L22.1009 14.704H24.2609ZM49.9649 41.668H14.9369V14.704H16.9529L23.7929 34H27.2849L32.5409 18.88H32.7209L38.2289 34H41.6489L48.0929 14.704H49.9649V41.668ZM49.2494 41.668V0.987998H67.3214V41.668H49.2494ZM66.2774 28.888L62.3894 28.168C62.2934 28.648 62.0174 29.188 61.5614 29.788C61.1294 30.388 60.2894 30.688 59.0414 30.688C56.7614 30.688 55.4894 29.404 55.2254 26.836H65.8814C66.0494 26.068 66.1334 25.288 66.1334 24.496C66.1094 22.384 65.3894 20.68 63.9734 19.384C62.5814 18.088 60.7574 17.44 58.5014 17.44C55.9334 17.44 53.9294 18.28 52.4894 19.96C51.0734 21.616 50.3654 23.692 50.3654 26.188C50.3654 28.9 51.1454 30.94 52.7054 32.308C54.2894 33.676 56.2934 34.36 58.7174 34.36C61.0454 34.36 62.8574 33.808 64.1534 32.704C65.4494 31.6 66.1574 30.328 66.2774 28.888ZM61.3454 24.136H55.2614C55.4054 23.128 55.7414 22.312 56.2694 21.688C56.7974 21.064 57.5414 20.752 58.5014 20.752C59.6054 20.752 60.3734 21.112 60.8054 21.832C61.2614 22.552 61.4414 23.32 61.3454 24.136ZM66.5462 41.668V12.76H68.7063V28.996C68.7063 29.812 68.6463 30.64 68.5263 31.48C68.4063 32.32 68.2623 33.16 68.0942 34H72.7383C72.8103 33.592 72.8703 33.184 72.9183 32.776C72.9903 32.368 73.0503 31.96 73.0983 31.552C74.1063 33.424 75.8463 34.36 78.3183 34.36C80.7663 34.36 82.6143 33.484 83.8623 31.732C85.1343 29.98 85.7703 27.904 85.7703 25.504C85.7703 22.96 85.1223 20.98 83.8263 19.564C82.5303 18.148 80.8623 17.44 78.8223 17.44C77.3583 17.44 76.1823 17.776 75.2943 18.448C74.4303 19.12 73.7823 19.924 73.3503 20.86V9.232H66.5462V0.987998H86.8503V41.668H66.5462ZM80.9463 25.9C80.9463 27.556 80.5743 28.78 79.8303 29.572C79.1103 30.34 78.2223 30.724 77.1663 30.724C75.9423 30.724 74.9943 30.28 74.3223 29.392C73.6743 28.48 73.3503 27.364 73.3503 26.044V25.648C73.3503 24.448 73.6863 23.392 74.3583 22.48C75.0543 21.568 76.0263 21.112 77.2743 21.112C78.3783 21.112 79.2663 21.52 79.9383 22.336C80.6103 23.152 80.9463 24.34 80.9463 25.9ZM86.1283 41.668V0.987998H114.208V41.668H86.1283ZM110.356 14.704H112.876V10.6H102.472V14.704H105.856V24.496H105.712L93.9043 10.6H87.5323V14.704H90.4483V29.896H87.9283V34H98.1883V29.896H94.9483V19.168H95.0923L107.656 34.036L110.356 34V14.704ZM113.48 41.668V0.987998H131.552V41.668H113.48ZM130.508 28.888L126.62 28.168C126.524 28.648 126.248 29.188 125.792 29.788C125.36 30.388 124.52 30.688 123.272 30.688C120.992 30.688 119.72 29.404 119.456 26.836H130.112C130.28 26.068 130.364 25.288 130.364 24.496C130.34 22.384 129.62 20.68 128.204 19.384C126.812 18.088 124.988 17.44 122.732 17.44C120.164 17.44 118.16 18.28 116.72 19.96C115.304 21.616 114.596 23.692 114.596 26.188C114.596 28.9 115.376 30.94 116.936 32.308C118.52 33.676 120.524 34.36 122.948 34.36C125.276 34.36 127.088 33.808 128.384 32.704C129.68 31.6 130.388 30.328 130.508 28.888ZM125.576 24.136H119.492C119.636 23.128 119.972 22.312 120.5 21.688C121.028 21.064 121.772 20.752 122.732 20.752C123.836 20.752 124.604 21.112 125.036 21.832C125.492 22.552 125.672 23.32 125.576 24.136ZM130.705 41.668V0.987998H147.949V41.668H130.705ZM146.725 29.032C146.725 27.472 146.245 26.368 145.285 25.72C144.349 25.048 143.245 24.604 141.973 24.388C140.725 24.172 139.621 23.956 138.661 23.74C137.725 23.5 137.257 23.032 137.257 22.336C137.257 21.808 137.461 21.424 137.869 21.184C138.301 20.92 138.817 20.788 139.417 20.788C140.329 20.788 141.181 20.92 141.973 21.184L142.261 23.452L145.861 23.056L145.465 18.916C143.569 17.932 141.541 17.44 139.381 17.44C137.725 17.44 136.117 17.788 134.557 18.484C133.021 19.156 132.253 20.488 132.253 22.48C132.253 24.088 132.745 25.228 133.729 25.9C134.713 26.572 135.853 27.016 137.149 27.232C138.445 27.448 139.585 27.664 140.569 27.88C141.553 28.096 142.045 28.552 142.045 29.248C142.045 29.824 141.721 30.256 141.073 30.544C140.425 30.832 139.657 30.976 138.769 30.976C138.529 30.976 138.169 30.964 137.689 30.94C137.209 30.892 136.753 30.796 136.321 30.652V28.636L132.721 28.24L132.073 32.776C133.153 33.328 134.281 33.736 135.457 34C136.657 34.24 137.845 34.36 139.021 34.36C141.301 34.36 143.149 33.928 144.565 33.064C146.005 32.176 146.725 30.832 146.725 29.032ZM147.16 41.668V0.987998H162.208V41.668H147.16ZM161.848 28.96L158.464 27.916C158.32 29.116 158.02 29.848 157.564 30.112C157.132 30.352 156.772 30.472 156.484 30.472C155.284 30.472 154.684 29.764 154.684 28.348V21.076H160.516V17.764H154.684V12.832H150.04V17.764H147.736V21.076H150.04V29.14C150.04 30.82 150.568 32.116 151.624 33.028C152.704 33.916 154.144 34.36 155.944 34.36C159.424 34.36 161.392 32.56 161.848 28.96ZM161.323 41.668V0.987998H168.811V41.668H161.323ZM167.902 41.668V0.987998H182.158V41.668H167.902ZM181.258 9.232H176.686L169.666 34H174.238L181.258 9.232ZM181.437 0.987998H196.377V41.668H181.437V0.987998ZM195.153 24.748V23.164L183.705 14.236V18.628L190.437 23.848L183.669 29.104V33.496L195.153 24.748Z" fill="url(#paint0_linear_18_2)"/>
    <defs>
        <linearGradient id="paint0_linear_18_2" x1="-8" y1="20.5" x2="196" y2="20.5" gradientUnits="userSpaceOnUse">
            <stop stop-color="#FFFBFB"/>
            <stop offset="0.0001" stop-color="#04E404"/>
            <stop offset="0.0002" stop-color="#0D8F20"/>
            <stop offset="0.781" stop-color="#DCBF00"/>
        </linearGradient>
    </defs>
</svg>
