<svg width="202" height="26" viewBox="0 0 202 26" fill="none" xmlns="http://www.w3.org/2000/svg">
    <path d="M14.79 24L0.55 16L14.79 8V9.76L3.75 16L14.79 22.24V24ZM17.0263 2.4L15.2662 2.08V1.6H19.1063C20.2369 1.6 21.1649 1.856 21.8903 2.368C22.6156 2.88 23.1276 3.53067 23.4263 4.32L28.2583 16.64L31.0743 8.384L28.7063 2.4L26.9463 2.08V1.6H30.7863C31.9169 1.6 32.8343 1.856 33.5382 2.368C34.2423 2.85866 34.7649 3.50933 35.1063 4.32L39.9383 16.64L44.5463 3.04L42.1463 2.08V1.6H48.0662V2.08L45.5063 3.04L38.3063 24.32H37.3463L31.5863 9.696L26.6263 24.32H25.6663L17.0263 2.4ZM55.7638 24.48C53.0331 24.48 50.9104 23.7333 49.3958 22.24C47.8811 20.7253 47.1238 18.6453 47.1238 16C47.1238 14.272 47.4544 12.768 48.1158 11.488C48.7771 10.208 49.6944 9.22667 50.8678 8.544C52.0624 7.86133 53.4278 7.52 54.9638 7.52C56.4998 7.52 57.8438 7.808 58.9958 8.384C60.1691 8.96 61.0651 9.73867 61.6838 10.72C62.3238 11.68 62.6438 12.7467 62.6438 13.92C62.6438 14.4533 62.5904 14.912 62.4838 15.296L62.3238 15.84C61.4064 16.032 60.4144 16.192 59.3478 16.32C57.1078 16.64 54.8464 16.8 52.5638 16.8C52.5638 19.2747 52.9051 21.0453 53.5878 22.112C54.2704 23.1573 55.2091 23.68 56.4038 23.68C57.2358 23.68 58.0038 23.488 58.7078 23.104C59.4331 22.6987 59.9984 22.176 60.4038 21.536C60.8304 20.8747 61.0438 20.2027 61.0438 19.52H61.8438C61.8438 20.3733 61.5878 21.184 61.0758 21.952C60.5638 22.72 59.8491 23.3387 58.9318 23.808C58.0144 24.256 56.9584 24.48 55.7638 24.48ZM52.5638 16C53.9291 16 55.0384 15.9467 55.8918 15.84C56.2544 15.8187 56.6384 15.7653 57.0438 15.68C57.0651 15.5733 57.1184 15.3387 57.2038 14.976C57.3104 14.4427 57.3638 13.8773 57.3638 13.28C57.3638 11.5093 57.1291 10.2187 56.6598 9.408C56.1904 8.576 55.6251 8.16 54.9638 8.16C53.3638 8.16 52.5638 10.7733 52.5638 16ZM75.59 24.48C74.1607 24.48 72.966 24 72.006 23.04C71.6007 22.6133 71.2487 22.1333 70.95 21.6C70.8007 22.0693 70.5447 22.496 70.182 22.88C69.3713 23.7333 68.1873 24.16 66.63 24.16H66.31V2.56L64.39 2.08V1.6H68.55C70.47 1.6 71.43 2.56 71.43 4.48V8.8C71.7713 8.52267 72.102 8.30933 72.422 8.16C73.19 7.73333 74.086 7.52 75.11 7.52C77.2647 7.52 78.9713 8.256 80.23 9.728C81.51 11.1787 82.15 13.2693 82.15 16C82.15 17.8133 81.862 19.36 81.286 20.64C80.71 21.8987 79.9313 22.8587 78.95 23.52C77.9687 24.16 76.8487 24.48 75.59 24.48ZM74.31 23.36C74.9927 23.36 75.558 22.8267 76.006 21.76C76.4753 20.672 76.71 18.752 76.71 16C76.71 13.12 76.454 11.1467 75.942 10.08C75.4513 9.01333 74.7473 8.48 73.83 8.48C73.2753 8.48 72.71 8.69333 72.134 9.12C71.9633 9.248 71.7287 9.46133 71.43 9.76V20.8C71.622 21.2907 71.8567 21.7173 72.134 22.08C72.774 22.9333 73.4993 23.36 74.31 23.36ZM96.8863 7.04V22.56L99.4463 23.52V24H93.3663V23.52L95.9263 22.56V2.72L93.6863 2.08V1.6H97.0463C98.1769 1.6 99.0623 1.80267 99.7023 2.208C100.342 2.61333 100.95 3.15733 101.526 3.84L111.766 15.84V3.04L109.206 2.08V1.6H115.286V2.08L112.726 3.04V24.48H111.766L96.8863 7.04ZM126.014 24.48C123.283 24.48 121.16 23.7333 119.646 22.24C118.131 20.7253 117.374 18.6453 117.374 16C117.374 14.272 117.704 12.768 118.366 11.488C119.027 10.208 119.944 9.22667 121.118 8.544C122.312 7.86133 123.678 7.52 125.214 7.52C126.75 7.52 128.094 7.808 129.246 8.384C130.419 8.96 131.315 9.73867 131.934 10.72C132.574 11.68 132.894 12.7467 132.894 13.92C132.894 14.4533 132.84 14.912 132.734 15.296L132.574 15.84C131.656 16.032 130.664 16.192 129.598 16.32C127.358 16.64 125.096 16.8 122.814 16.8C122.814 19.2747 123.155 21.0453 123.838 22.112C124.52 23.1573 125.459 23.68 126.654 23.68C127.486 23.68 128.254 23.488 128.958 23.104C129.683 22.6987 130.248 22.176 130.654 21.536C131.08 20.8747 131.294 20.2027 131.294 19.52H132.094C132.094 20.3733 131.838 21.184 131.326 21.952C130.814 22.72 130.099 23.3387 129.182 23.808C128.264 24.256 127.208 24.48 126.014 24.48ZM122.814 16C124.179 16 125.288 15.9467 126.142 15.84C126.504 15.8187 126.888 15.7653 127.294 15.68C127.315 15.5733 127.368 15.3387 127.454 14.976C127.56 14.4427 127.614 13.8773 127.614 13.28C127.614 11.5093 127.379 10.2187 126.91 9.408C126.44 8.576 125.875 8.16 125.214 8.16C123.614 8.16 122.814 10.7733 122.814 16ZM142.8 24.48C141.477 24.48 140.293 24.192 139.248 23.616C138.736 23.3387 138.32 23.04 138 22.72C137.659 23.1893 137.285 23.552 136.88 23.808C136.688 23.936 136.475 24.0533 136.24 24.16H135.44V18.72H136.72C136.997 19.616 137.403 20.448 137.936 21.216C139.067 22.8587 140.475 23.68 142.16 23.68C143.056 23.68 143.728 23.4667 144.176 23.04C144.645 22.592 144.88 21.952 144.88 21.12C144.88 20.416 144.56 19.8293 143.92 19.36C143.301 18.8693 142.32 18.272 140.976 17.568C139.824 16.992 138.885 16.48 138.16 16.032C137.456 15.5627 136.848 14.9867 136.336 14.304C135.845 13.6 135.6 12.7787 135.6 11.84C135.6 10.56 136.144 9.52533 137.232 8.736C138.341 7.92533 140.037 7.52 142.32 7.52C143.451 7.52 144.496 7.81867 145.456 8.416C145.925 8.69333 146.331 8.98133 146.672 9.28C146.949 8.896 147.323 8.53333 147.792 8.192C148.155 7.97867 148.368 7.86133 148.432 7.84H149.232V13.28H147.952C147.632 12.3627 147.237 11.5413 146.768 10.816C145.701 9.152 144.432 8.32 142.96 8.32C142.384 8.32 141.893 8.53333 141.488 8.96C141.083 9.38667 140.88 9.92 140.88 10.56C140.88 11.3707 141.221 12.0533 141.904 12.608C142.587 13.1413 143.621 13.76 145.008 14.464C146.139 15.04 147.035 15.552 147.696 16C148.379 16.4267 148.955 16.96 149.424 17.6C149.915 18.24 150.16 18.9867 150.16 19.84C150.16 22.9333 147.707 24.48 142.8 24.48ZM160.881 24.48C159.473 24.48 158.247 24.224 157.201 23.712C156.177 23.2 155.388 22.496 154.833 21.6C154.279 20.704 154.001 19.6907 154.001 18.56V8.8H151.761V8H154.001V6.4C154.001 4.48 154.961 3.52 156.881 3.52H159.121V8H163.601V8.8H159.121V18.56C159.121 20.5227 159.324 21.8667 159.729 22.592C160.135 23.3173 160.732 23.68 161.521 23.68C162.289 23.68 162.961 23.3067 163.537 22.56C164.113 21.8133 164.401 20.8 164.401 19.52H165.201C165.201 21.0987 164.807 22.3253 164.017 23.2C163.228 24.0533 162.183 24.48 160.881 24.48ZM174.016 25.6L185.056 -1.90735e-06H186.496L175.456 25.6H174.016ZM186.964 24V22.24L198.004 16L186.964 9.76V8L201.204 16L186.964 24Z" fill="url(#paint0_linear_10_5)"/>
    <defs>
        <linearGradient id="paint0_linear_10_5" x1="-10" y1="13.5" x2="202" y2="13.5" gradientUnits="userSpaceOnUse">
            <stop/>
            <stop offset="0.0001" stop-color="#4C3293"/>
            <stop offset="0.0002" stop-color="#4303DE"/>
            <stop offset="1" stop-color="#2D2805"/>
        </linearGradient>
    </defs>
</svg>

